<svg width="595" height="397" viewBox="0 0 595 397" fill="none" xmlns="http://www.w3.org/2000/svg">
<path d="M63.1336 0.112292C65.3026 0.113422 67.4717 0.112785 69.6408 0.110522C75.5037 0.109379 81.3663 0.132833 87.2292 0.160818C93.3657 0.185889 99.5023 0.188178 105.639 0.19292C117.248 0.205333 128.857 0.238132 140.466 0.278318C153.687 0.323087 166.908 0.345036 180.13 0.3651C207.316 0.406866 234.503 0.477186 261.689 0.566394C261.293 1.02663 260.897 1.48687 260.489 1.96106C259.96 2.57569 259.432 3.19032 258.888 3.82358C258.337 4.46325 257.785 5.10292 257.217 5.76197C256.117 7.06126 255.059 8.39628 254.029 9.75175C250.383 13.8444 247.005 14.9719 241.554 15.3456C237.197 15.4921 232.848 15.4554 228.489 15.4053C226.524 15.4082 224.558 15.4143 222.593 15.4233C218.37 15.4359 214.148 15.4266 209.925 15.4C203.242 15.3581 196.56 15.3653 189.878 15.379C179.304 15.3947 168.731 15.3775 158.157 15.3463C139.231 15.291 120.306 15.2824 101.381 15.2998C94.7431 15.3044 88.106 15.2917 81.4685 15.2647C77.3326 15.2504 73.1968 15.2481 69.0609 15.2487C67.1493 15.2463 65.2378 15.2388 63.3263 15.2256C48.9332 15.1296 36.9261 15.803 25.9356 26.2305C19.9898 32.7574 16.5747 39.9829 16.5525 48.8352C16.5474 49.9087 16.5423 50.9821 16.5371 52.0881C16.5366 53.2667 16.5361 54.4452 16.5356 55.6595C16.5312 56.9122 16.5268 58.1649 16.5223 59.4556C16.5103 62.935 16.5047 66.4145 16.5001 69.894C16.4941 73.6461 16.4825 77.3981 16.4718 81.1502C16.4473 90.2135 16.4327 99.2769 16.4198 108.34C16.416 110.901 16.4121 113.462 16.408 116.023C16.3828 131.931 16.3607 147.839 16.3483 163.748C16.3453 167.432 16.3424 171.116 16.3394 174.801C16.3386 175.716 16.3379 176.632 16.3371 177.576C16.3245 192.402 16.2912 207.227 16.2496 222.053C16.2071 237.281 16.1836 252.51 16.1784 267.738C16.1749 276.285 16.1632 284.832 16.1303 293.38C16.1022 300.661 16.0913 307.942 16.1024 315.223C16.1076 318.935 16.1048 322.646 16.08 326.358C16.0532 330.392 16.0656 334.424 16.0815 338.457C16.0676 339.618 16.0537 340.779 16.0394 341.975C16.1484 353.263 19.7082 362.492 27.5801 370.66C35.3383 377.671 43.1664 379.877 53.4281 379.824C54.7176 379.829 54.7176 379.829 56.0332 379.834C58.9157 379.844 61.7979 379.839 64.6804 379.834C66.7672 379.838 68.854 379.842 70.9407 379.848C76.6767 379.86 82.4127 379.86 88.1487 379.857C94.3343 379.857 100.52 379.868 106.705 379.877C118.824 379.894 130.943 379.899 143.061 379.901C152.91 379.901 162.759 379.906 172.607 379.912C175.442 379.914 178.278 379.915 181.113 379.917C181.818 379.918 182.522 379.918 183.249 379.919C203.073 379.931 222.897 379.939 242.721 379.938C243.468 379.938 244.215 379.938 244.985 379.938C248.773 379.938 252.561 379.937 256.349 379.937C257.101 379.937 257.853 379.937 258.628 379.937C260.15 379.937 261.671 379.937 263.192 379.937C286.864 379.936 310.536 379.951 334.208 379.978C360.805 380.009 387.401 380.026 413.997 380.024C416.832 380.024 419.668 380.024 422.504 380.024C423.551 380.024 423.551 380.024 424.62 380.024C435.857 380.024 447.093 380.036 458.33 380.054C469.622 380.071 480.914 380.072 492.206 380.059C498.324 380.053 504.441 380.053 510.559 380.07C516.159 380.086 521.758 380.083 527.358 380.066C529.384 380.063 531.41 380.066 533.436 380.077C536.191 380.091 538.945 380.081 541.699 380.064C542.485 380.074 543.272 380.084 544.081 380.094C553.048 379.98 561.147 375.794 567.658 369.734C576.679 360.394 579.449 350.359 579.318 337.618C579.325 336.37 579.332 335.122 579.339 333.837C579.354 330.407 579.346 326.979 579.328 323.549C579.315 319.838 579.33 316.126 579.342 312.414C579.361 305.157 579.352 297.9 579.334 290.643C579.32 284.742 579.316 278.841 579.32 272.941C579.32 272.099 579.321 271.257 579.321 270.39C579.322 268.68 579.323 266.97 579.324 265.26C579.333 250.158 579.316 235.057 579.286 219.955C579.258 205.319 579.25 190.683 579.266 176.047C579.283 160.087 579.287 144.128 579.269 128.168C579.267 126.465 579.265 124.762 579.264 123.058C579.263 122.22 579.262 121.382 579.261 120.519C579.255 114.628 579.259 108.738 579.265 102.847C579.273 95.6645 579.266 88.4818 579.241 81.299C579.229 77.6378 579.222 73.9769 579.234 70.3157C579.246 66.3394 579.226 62.3636 579.204 58.3874C579.212 57.2409 579.221 56.0944 579.229 54.9131C579.11 43.2916 575.745 34.0358 567.689 25.5664C555.954 14.2109 541.012 15.036 525.801 15.2268C523.593 15.2394 521.386 15.25 519.178 15.2587C514.437 15.2806 509.697 15.314 504.957 15.3556C497.422 15.4194 489.888 15.4423 482.353 15.4574C471.752 15.4809 461.151 15.509 450.55 15.5515C449.543 15.5555 449.543 15.5555 448.516 15.5596C437.703 15.604 426.891 15.6827 416.079 15.771C404.906 15.8611 393.734 15.8986 382.56 15.8959C376.316 15.8964 370.074 15.92 363.83 16.0038C333.652 16.3949 308.34 14.2874 280.689 1.56639C280.689 1.23639 280.689 0.906394 280.689 0.566394C314.805 0.520601 348.921 0.485367 383.037 0.464263C387.066 0.461762 391.095 0.459173 395.124 0.456531C395.926 0.456006 396.729 0.455482 397.555 0.454941C410.537 0.446242 423.519 0.430475 436.501 0.412088C449.825 0.393375 463.149 0.382274 476.473 0.378217C484.692 0.375475 492.912 0.366819 501.131 0.350561C506.77 0.339976 512.409 0.336797 518.048 0.339391C521.299 0.34067 524.551 0.337632 527.803 0.327983C531.333 0.31802 534.864 0.32043 538.395 0.325885C539.415 0.320059 540.436 0.314234 541.487 0.308231C556.35 0.370209 569.66 5.54978 580.436 15.9883C590.906 27.9654 594.155 40.0685 594.084 55.6464C594.09 56.9207 594.096 58.195 594.102 59.5079C594.119 63.0153 594.116 66.5225 594.111 70.03C594.108 73.8242 594.123 77.6184 594.135 81.4126C594.156 88.8344 594.161 96.2561 594.159 103.678C594.158 109.713 594.161 115.749 594.169 121.785C594.171 123.527 594.173 125.269 594.175 127.011C594.177 128.312 594.177 128.312 594.178 129.639C594.197 146.02 594.196 162.4 594.189 178.781C594.184 193.748 594.205 208.715 594.238 223.682C594.271 239.072 594.287 254.462 594.282 269.852C594.28 278.484 594.285 287.115 594.31 295.747C594.331 303.095 594.334 310.443 594.315 317.79C594.306 321.535 594.305 325.279 594.326 329.024C594.348 333.094 594.331 337.162 594.311 341.232C594.323 342.401 594.336 343.57 594.349 344.774C594.196 359.113 588.143 370.925 578.502 381.254C571.472 388.024 563.03 391.995 553.689 394.566C553.066 394.74 552.442 394.913 551.799 395.092C548.345 395.869 544.842 395.709 541.318 395.703C540.462 395.706 539.606 395.709 538.723 395.711C535.834 395.719 532.944 395.72 530.055 395.72C527.97 395.724 525.885 395.729 523.801 395.734C518.056 395.746 512.312 395.751 506.567 395.756C500.377 395.762 494.188 395.773 487.998 395.784C473.748 395.807 459.497 395.822 445.247 395.834C440.316 395.839 435.384 395.843 430.453 395.848C404.226 395.873 377.999 395.895 351.773 395.908C345.696 395.911 339.619 395.913 333.543 395.917C332.411 395.917 332.411 395.917 331.255 395.918C306.789 395.93 282.324 395.961 257.858 396.002C232.7 396.045 207.542 396.072 182.385 396.077C178.829 396.078 175.274 396.079 171.718 396.08C170.669 396.08 170.669 396.08 169.598 396.08C158.35 396.084 147.102 396.104 135.854 396.131C124.54 396.157 113.226 396.164 101.912 396.153C95.7861 396.148 89.6601 396.151 83.5338 396.176C77.9202 396.198 72.307 396.198 66.6933 396.179C64.6676 396.176 62.6419 396.181 60.6162 396.197C42.0839 396.326 28.2126 392.769 14.377 379.629C-0.56792 363.814 -0.0564181 344.213 0.0358441 323.706C0.0472695 319.942 0.0296385 316.178 0.0159428 312.414C-0.00617479 305.061 -0.00154097 297.709 0.0130055 290.356C0.0243415 284.376 0.0258104 278.397 0.0203869 272.417C0.0196207 271.563 0.0188532 270.709 0.0180638 269.829C0.016465 268.093 0.0148469 266.357 0.0132038 264.622C-0.00101957 248.385 0.0152838 232.148 0.0422032 215.911C0.0645469 202.004 0.060652 188.097 0.0376103 174.19C0.0108057 158.004 0.000343736 141.819 0.0156719 125.633C0.0172645 123.905 0.018836 122.176 0.0203869 120.448C0.0211583 119.598 0.0219306 118.748 0.0227253 117.872C0.0270278 111.904 0.0197865 105.936 0.00798915 99.9683C-0.00608591 92.689 -0.00213159 85.4099 0.0243923 78.1306C0.0374625 74.4223 0.0428011 70.7145 0.0261471 67.0063C0.00831323 62.9742 0.0297167 58.9432 0.0545475 54.9111C0.0433939 53.7566 0.0322409 52.6021 0.0207493 51.4126C0.192209 36.9757 5.72337 24.8631 15.666 14.5078C20.2162 10.293 25.1316 7.26764 30.6895 4.56639C31.3858 4.20839 32.0821 3.85038 32.7996 3.48153C42.4943 -0.786383 52.7624 0.0365312 63.1336 0.112292Z" fill="#5A5C5E"/>
<path d="M273.189 6.5C274.161 6.79552 275.133 7.09104 276.134 7.39551C283.903 9.95414 291.647 12.5802 299.377 15.2539C301.157 15.8669 302.938 16.4795 304.719 17.0918C309.044 18.5797 313.367 20.0719 317.689 21.5664C317.689 21.8964 317.689 22.2264 317.689 22.5664C314.389 22.5664 311.089 22.5664 307.689 22.5664C307.689 23.2264 307.689 23.8864 307.689 24.5664C309.999 24.5664 312.309 24.5664 314.689 24.5664C315.361 26.0227 316.026 27.4815 316.689 28.9414C317.061 29.7535 317.432 30.5656 317.814 31.4023C318.689 33.5664 318.689 33.5664 318.689 35.5664C320.669 35.5664 322.649 35.5664 324.689 35.5664C324.329 34.7839 323.968 34.0015 323.596 33.1953C322.9 31.6774 322.9 31.6774 322.189 30.1289C321.725 29.1196 321.261 28.1102 320.783 27.0703C319.689 24.5664 319.689 24.5664 319.689 23.5664C325.245 23.1553 329.535 24.6199 334.682 26.4531C335.545 26.752 336.409 27.0509 337.299 27.3588C340.057 28.3152 342.811 29.284 345.564 30.2539C349.165 31.5116 352.767 32.7643 356.369 34.0156C357.689 34.4754 357.689 34.4754 359.036 34.9445C365.731 37.2647 372.465 39.421 379.237 41.5007C383.745 42.8921 388.219 44.3717 392.689 45.8789C393.476 46.1425 394.262 46.4061 395.072 46.6777C396.945 47.3058 398.817 47.9359 400.689 48.5664C397.368 49.6735 395.612 49.4892 392.166 49.0781C391.069 48.9498 389.972 48.8214 388.842 48.6892C387.678 48.5456 386.514 48.4019 385.314 48.2539C384.128 48.1122 382.941 47.9705 381.719 47.8245C375.015 47.0123 368.344 46.1046 361.678 45.0273C351.336 43.4321 340.912 42.484 330.498 41.5093C318.411 40.3773 306.391 39.0736 294.385 37.2617C289.663 36.5496 284.932 35.942 280.189 35.3789C279.501 35.295 278.812 35.2112 278.102 35.1248C274.612 34.7184 271.203 34.4786 267.689 34.5664C268.379 35.3772 269.069 36.1881 269.779 37.0234C275.826 44.1437 281.795 51.3196 287.689 58.5664C289.189 60.4002 290.689 62.2335 292.189 64.0664C294.419 66.7902 296.648 69.5152 298.869 72.2461C303.389 77.7949 307.972 83.2822 312.607 88.7344C315.468 92.1045 318.282 95.5065 321.064 98.9414C325.231 104.064 329.551 109.041 333.89 114.017C337.812 118.526 341.62 123.113 345.381 127.758C348.605 131.68 351.924 135.519 355.24 139.364C358.361 142.993 361.424 146.661 364.439 150.379C368.383 155.238 372.488 159.93 376.689 164.566C378.288 161.656 379.125 159.055 379.732 155.797C379.915 154.843 380.098 153.889 380.286 152.906C380.579 151.345 380.579 151.345 380.877 149.754C382.748 140.086 384.799 130.476 387.002 120.879C390.143 107.168 393.074 93.4176 395.937 79.6458C397.752 70.9265 399.638 62.2338 401.689 53.5664C402.349 53.5664 403.009 53.5664 403.689 53.5664C406.552 68.3237 409.219 83.1067 411.764 97.9219C412.137 100.088 412.51 102.253 412.883 104.419C413.656 108.912 414.428 113.405 415.199 117.899C416.184 123.636 417.174 129.373 418.165 135.109C418.934 139.562 419.699 144.016 420.463 148.469C420.827 150.585 421.192 152.701 421.558 154.817C422.068 157.769 422.574 160.723 423.079 163.677C423.228 164.533 423.377 165.39 423.531 166.273C423.943 168.701 424.327 171.13 424.689 173.566C424.825 174.465 424.96 175.364 425.099 176.29C425.214 177.179 425.329 178.068 425.447 178.984C425.554 179.785 425.662 180.587 425.772 181.413C425.671 184.048 425 184.923 423.182 186.781C422.001 187.722 420.793 188.628 419.564 189.504C418.26 190.523 416.955 191.543 415.65 192.562C414.985 193.064 414.319 193.565 413.634 194.082C410.726 196.302 407.964 198.682 405.189 201.066C404.116 201.975 403.042 202.882 401.967 203.789C396.774 208.183 391.616 212.619 386.456 217.05C382.955 220.056 379.451 223.058 375.946 226.06C372.989 228.593 370.034 231.13 367.084 233.672C361.751 238.262 356.408 242.824 350.939 247.254C346.574 250.796 342.404 254.506 338.248 258.289C332.972 262.986 327.571 267.645 321.689 271.566C323.222 266.359 325.511 261.823 328.064 257.066C328.504 256.24 328.943 255.414 329.395 254.563C333.724 246.446 338.135 238.374 342.553 230.305C346.331 223.401 350.074 216.478 353.818 209.555C356.522 204.557 359.235 199.564 361.967 194.582C369.577 180.704 369.577 180.704 376.689 166.566C373.606 167.232 370.523 167.898 367.439 168.566C366.417 168.788 365.395 169.009 364.342 169.238C358.167 170.58 351.998 171.941 345.834 173.328C323.663 178.311 301.437 182.999 279.183 187.595C272.646 188.947 266.113 190.32 259.584 191.707C255.163 192.646 250.741 193.581 246.32 194.515C244.208 194.962 242.097 195.412 239.986 195.865C237.054 196.493 234.12 197.113 231.186 197.73C230.324 197.917 229.463 198.104 228.575 198.297C223.839 199.285 219.528 199.757 214.689 199.566C216.183 192.301 218.216 185.296 220.428 178.219C220.972 176.464 220.972 176.464 221.527 174.673C222.682 170.949 223.842 167.226 225.002 163.504C225.77 161.031 226.537 158.557 227.305 156.084C229.116 150.248 230.932 144.414 232.751 138.58C233.573 135.939 234.393 133.298 235.211 130.656C237.263 124.04 239.375 117.451 241.618 110.896C245.19 100.452 248.342 89.946 251.253 79.3C253.098 72.5814 255.15 66.0081 257.424 59.4219C260.178 51.2457 262.371 42.8744 264.689 34.5664C261.875 36.2716 259.063 37.9805 256.252 39.6914C255.428 40.1926 254.605 40.6938 253.756 41.2102C248.818 44.2273 243.953 47.3074 239.221 50.6406C237.689 51.5664 237.689 51.5664 235.689 51.5664C236.127 49.3789 236.127 49.3789 237.689 46.5664C239.65 45.332 239.65 45.332 242.002 44.1289C247.541 41.2794 250.644 38.3734 252.877 32.3789C253.145 31.4508 253.413 30.5227 253.689 29.5664C254.349 28.5764 255.009 27.5864 255.689 26.5664C255.135 26.8436 254.581 27.1207 254.01 27.4063C251.236 28.793 248.463 30.1797 245.689 31.5664C245.029 31.2364 244.369 30.9064 243.689 30.5664C244.23 26.7001 245.817 25.226 248.752 22.7539C249.565 22.0591 250.379 21.3643 251.217 20.6484C252.033 19.9614 252.849 19.2743 253.689 18.5664C255.067 17.3608 256.442 16.1527 257.814 14.9414C258.471 14.3845 259.127 13.8277 259.803 13.2539C261.721 11.6028 261.721 11.6028 263.357 9.69141C266.635 6.20336 268.501 5.06134 273.189 6.5ZM284.689 19.5664C284.689 20.2264 284.689 20.8864 284.689 21.5664C286.999 21.5664 289.309 21.5664 291.689 21.5664C292.019 23.8764 292.349 26.1864 292.689 28.5664C291.039 28.8964 289.389 29.2264 287.689 29.5664C287.689 30.5564 287.689 31.5464 287.689 32.5664C294.063 33.3115 300.273 33.6699 306.689 33.5664C306.689 32.9064 306.689 32.2464 306.689 31.5664C305.922 31.5264 305.155 31.4865 304.365 31.4453C301.689 30.5664 301.689 30.5664 300.107 27.8438C299.498 26.1905 299.498 26.1905 298.877 24.5039C298.458 23.3992 298.039 22.2945 297.607 21.1563C297.304 20.3016 297.002 19.447 296.689 18.5664C290.605 18.3683 290.605 18.3683 284.689 19.5664ZM288.189 106.629C284.1 114.638 287.121 125.552 288.939 133.941C289.144 134.982 289.349 136.022 289.561 137.094C290.974 143.8 292.438 149.049 298.076 153.414C303.409 155.766 309.541 155.421 315.107 153.91C319.222 152.119 322.102 149.824 324.064 145.637C326.37 137.999 324.389 130.019 322.939 122.379C322.783 121.536 322.626 120.692 322.465 119.823C321.049 112.912 319.285 106.632 313.627 102.129C303.508 96.7465 296.429 99.8309 288.189 106.629ZM246.689 115.816C245.228 119.835 245.499 123.303 245.689 127.566C248.659 127.566 251.629 127.566 254.689 127.566C254.978 126.453 255.267 125.339 255.564 124.191C256.689 120.566 256.689 120.566 258.689 118.566C264.667 118.023 264.667 118.023 267.689 119.629C269.293 122.736 268.363 125.207 267.689 128.566C266.323 131.7 266.323 131.7 264.6 134.832C263.98 135.969 263.361 137.106 262.723 138.277C262.066 139.457 261.409 140.637 260.752 141.816C260.098 143.011 259.445 144.207 258.793 145.402C254.129 153.908 254.129 153.908 251.689 157.566C251.991 160.525 252.357 162.901 253.689 165.566C257.315 164.944 260.94 164.318 264.564 163.691C265.578 163.517 266.591 163.343 267.635 163.164C274.007 162.061 280.355 160.871 286.689 159.566C287.452 156.159 287.806 153.916 286.689 150.566C279.586 151.584 272.614 152.665 265.689 154.566C266.541 152.836 267.396 151.107 268.252 149.379C268.792 148.282 269.332 147.185 269.889 146.055C271.071 143.764 272.323 141.508 273.646 139.297C277.994 131.974 280.297 126.13 278.689 117.566C276.966 113.788 275.474 112.155 272.189 109.691C262.214 106.485 253.685 107.946 246.689 115.816ZM392.939 134.004C390.994 137.992 391.419 141.374 392.689 145.566C395.021 149.578 397.516 152.04 401.752 153.941C402.721 154.148 403.691 154.354 404.689 154.566C405.597 154.814 406.504 155.061 407.439 155.316C408.182 155.399 408.924 155.481 409.689 155.566C412.354 152.902 412.019 151.468 412.064 147.754C411.99 143.866 411.823 141.834 410.064 138.316C407.753 136.323 407.753 136.323 404.564 136.129C401.566 136.295 401.566 136.295 399.689 138.566C399.523 142.15 399.523 142.15 399.689 145.566C398.17 144.391 398.17 144.391 396.689 142.566C396.615 140.086 396.615 140.086 397.002 137.379C397.122 136.478 397.242 135.577 397.365 134.648C397.472 133.961 397.579 133.274 397.689 132.566C394.698 132.249 394.698 132.249 392.939 134.004ZM390.689 190.566C390.458 191.35 390.227 192.133 389.989 192.94C388.689 195.566 388.689 195.566 386.535 196.777C385.665 197.044 384.796 197.311 383.9 197.586C382.959 197.886 382.018 198.185 381.049 198.494C380.064 198.786 379.079 199.078 378.064 199.379C377.072 199.69 376.079 200.002 375.057 200.322C372.606 201.088 370.151 201.835 367.689 202.566C367.689 203.886 367.689 205.206 367.689 206.566C368.349 206.566 369.009 206.566 369.689 206.566C367.629 210.172 365.338 213.37 362.689 216.566C363.349 217.886 364.009 219.206 364.689 220.566C370.388 221.113 374.034 219.319 378.939 216.754C379.659 216.397 380.378 216.041 381.119 215.674C385.542 213.427 385.542 213.427 388.689 209.566C388.857 206.941 388.857 206.941 388.689 204.566C386.214 204.071 386.214 204.071 383.689 203.566C383.689 202.576 383.689 201.586 383.689 200.566C384.304 200.445 384.919 200.324 385.553 200.199C386.361 200.032 387.169 199.864 388.002 199.691C388.802 199.529 389.603 199.367 390.428 199.199C392.942 198.622 392.942 198.622 395.689 196.566C394.908 194.071 394.908 194.071 393.689 191.566C392.699 191.236 391.709 190.906 390.689 190.566Z" fill="#1E415C"/>
<path d="M266.689 33.5664C276.52 34.0168 286.185 35.0892 295.934 36.4094C302.012 37.2288 308.087 37.9574 314.189 38.5664C324.189 39.572 334.142 40.8981 344.104 42.2227C355.034 43.6756 365.977 44.946 376.939 46.1289C378.698 46.3194 378.698 46.3194 380.493 46.5137C387.885 47.3018 395.279 47.9843 402.689 48.5664C403.019 50.2164 403.349 51.8664 403.689 53.5664C403.029 53.5664 402.369 53.5664 401.689 53.5664C401.56 54.5738 401.56 54.5738 401.428 55.6016C400.236 64.0754 398.494 72.3783 396.63 80.7268C395.433 86.0994 394.301 91.4782 393.236 96.8789C391.755 104.35 390.085 111.769 388.377 119.191C384.929 134.273 381.761 149.404 378.689 164.566C375.689 164.566 375.689 164.566 373.744 162.766C373.025 161.937 372.306 161.108 371.564 160.254C370.768 159.34 369.971 158.426 369.15 157.484C366.035 153.79 362.982 150.047 359.943 146.289C357.738 143.625 355.458 141.059 353.127 138.504C349.545 134.57 346.208 130.506 342.916 126.328C340.261 123.035 337.515 119.831 334.752 116.629C331.194 112.506 327.679 108.362 324.252 104.129C320.701 99.7495 317.028 95.4949 313.314 91.2539C308.622 85.8876 304.143 80.4051 299.784 74.7664C296.539 70.59 293.157 66.5594 289.689 62.5664C281.596 53.235 274.036 43.4948 266.689 33.5664ZM347.689 59.5664C345.972 62.0114 345.972 62.0114 344.689 64.5664C345.756 65.8627 345.756 65.8627 348.252 65.6289C349.056 65.6083 349.861 65.5877 350.689 65.5664C346.253 70.6146 340.75 74.658 334.689 77.5664C332.412 77.3867 332.412 77.3867 330.689 76.5664C330.359 75.9064 330.029 75.2464 329.689 74.5664C327.709 75.2264 325.729 75.8864 323.689 76.5664C325.362 80.32 327.727 83.4928 330.189 86.7539C330.795 87.5728 330.795 87.5728 331.412 88.4082C333.633 91.4577 333.633 91.4577 336.689 93.5664C337.679 92.9064 338.669 92.2464 339.689 91.5664C339.359 89.2564 339.029 86.9464 338.689 84.5664C339.668 83.9257 340.646 83.2851 341.654 82.625C348.886 77.863 355.981 73.0571 362.689 67.5664C362.048 65.0821 362.048 65.0821 360.689 62.5664C358.416 61.3201 358.416 61.3201 355.752 60.7539C354.439 60.4039 354.439 60.4039 353.1 60.0469C350.609 59.4687 350.609 59.4687 347.689 59.5664ZM351.689 88.5664C354.085 93.7181 354.085 93.7181 358.439 97.0039C359.182 97.1895 359.924 97.3752 360.689 97.5664C360.877 100.441 360.877 100.441 360.689 103.566C357.237 105.868 355.742 105.911 351.689 105.566C351.029 104.906 350.369 104.246 349.689 103.566C349.754 101.536 349.818 99.5065 349.885 97.4766C349.868 95.3237 349.868 95.3237 347.689 93.5664C347.029 93.2364 346.369 92.9064 345.689 92.5664C344.023 93.5572 344.023 93.5572 342.689 95.5664C342.139 101.165 342.518 104.754 345.689 109.566C348.699 112.833 350.166 113.508 354.627 114.004C359.801 113.712 363.287 111.931 367.002 108.316C369.129 104.851 369.761 102.644 369.689 98.5664C368.252 96.2519 366.588 94.5571 364.689 92.5664C364.689 91.9064 364.689 91.2464 364.689 90.5664C366.339 90.2364 367.989 89.9064 369.689 89.5664C372.329 92.8664 374.969 96.1664 377.689 99.5664C379.009 98.9064 380.329 98.2464 381.689 97.5664C381.175 93.0953 379.555 90.7343 376.689 87.3164C375.968 86.445 375.246 85.5736 374.502 84.6758C372.185 81.7147 372.185 81.7147 368.377 81.0664C361.991 81.0664 356.851 85.194 351.689 88.5664Z" fill="#41A9DF"/>
<path d="M376.689 166.566C375.406 170.681 373.868 174.424 371.889 178.25C371.051 179.871 371.051 179.871 370.197 181.524C369.596 182.673 368.996 183.821 368.377 185.004C368.067 185.599 367.758 186.194 367.439 186.807C362.639 196.028 357.622 205.108 352.453 214.129C348.107 221.741 344.031 229.473 340.015 237.263C336.48 244.106 332.81 250.86 328.986 257.546C326.224 262.422 323.885 267.411 321.689 272.566C319.439 272.816 319.439 272.816 316.689 272.566C315.336 271.254 314.006 269.917 312.689 268.566C311.003 267.345 309.284 266.167 307.541 265.027C306.043 264.04 306.043 264.04 304.515 263.033C303.459 262.343 302.403 261.653 301.314 260.941C294.45 256.414 287.598 251.894 280.939 247.066C276.118 243.574 271.224 240.223 266.256 236.941C258.619 231.878 251.08 226.665 243.516 221.495C240.801 219.642 238.082 217.797 235.361 215.953C234.52 215.382 233.679 214.81 232.813 214.221C231.25 213.159 229.685 212.099 228.119 211.042C222.806 207.425 217.723 203.562 212.689 199.566C214.689 198.566 214.689 198.566 217.902 198.578C221.569 198.567 224.701 198.122 228.282 197.376C230.188 196.985 230.188 196.985 232.132 196.586C233.509 196.296 234.886 196.005 236.264 195.715C237.711 195.415 239.159 195.115 240.606 194.816C244.425 194.026 248.243 193.227 252.06 192.426C255.839 191.636 259.619 190.853 263.398 190.07C289.496 184.656 315.556 179.07 341.579 173.308C372.049 166.566 372.049 166.566 376.689 166.566ZM292.689 200.566C290.018 204.574 289.851 207.853 290.689 212.566C292.139 214.844 293.84 216.575 295.689 218.566C295.359 219.556 295.029 220.546 294.689 221.566C294.318 226.577 294.572 229.558 297.689 233.566C301.643 237.163 304.831 237.069 309.994 236.918C314.929 236.274 317.564 233.992 320.564 230.191C321.961 226.934 322.263 225.08 321.689 221.566C320.452 220.267 320.452 220.267 319.189 218.941C317.099 216.747 316.704 215.822 316.533 212.73C316.585 211.686 316.636 210.642 316.689 209.566C316.882 205.484 316.991 203.074 314.314 199.879C310.036 196.11 307.021 196.234 301.459 196.277C297.654 196.674 295.509 198.036 292.689 200.566Z" fill="#3DA8DE"/>
<path d="M264.689 34.5664C263.479 40.1913 262.172 45.7727 260.627 51.3164C260.421 52.0588 260.214 52.8012 260.002 53.5662C257.506 62.4099 254.74 71.1715 251.997 79.9409C249.917 86.5914 247.872 93.2467 245.939 99.9414C244.122 106.225 242.117 112.426 239.998 118.613C238.904 121.86 237.893 125.129 236.89 128.405C233.614 139.075 230.296 149.733 226.981 160.391C225.874 163.949 224.768 167.508 223.663 171.068C222.583 174.545 221.502 178.023 220.42 181.5C220.01 182.818 219.601 184.137 219.192 185.455C218.624 187.286 218.054 189.116 217.484 190.946C217.16 191.986 216.837 193.026 216.504 194.098C215.689 196.566 215.689 196.566 214.689 198.566C211.041 197.35 210.866 196.591 209.123 193.289C208.643 192.393 208.163 191.496 207.668 190.573C207.16 189.601 206.651 188.63 206.127 187.629C205.042 185.596 203.956 183.563 202.869 181.531C202.33 180.517 201.791 179.502 201.235 178.457C199.123 174.507 196.942 170.598 194.752 166.691C190.323 158.754 185.989 150.767 181.669 142.771C177.325 134.731 172.953 126.708 168.559 118.696C166.625 115.16 164.727 111.644 162.979 108.012C161.928 105.443 161.928 105.443 159.689 104.566C159.377 101.816 159.377 101.816 159.689 98.5664C161.96 96.2313 163.893 94.8665 166.939 93.7188C170.362 92.2847 173.388 90.3719 176.502 88.3789C177.934 87.4737 179.366 86.5688 180.799 85.6641C181.579 85.1692 182.36 84.6744 183.164 84.1646C187.85 81.1992 192.551 78.2576 197.252 75.3164C198.27 74.679 199.289 74.0415 200.338 73.3848C207.361 68.9973 214.42 64.6713 221.502 60.3789C232.848 53.5012 244.112 46.492 255.24 39.2656C256.234 38.6224 257.228 37.9791 258.252 37.3164C259.078 36.775 259.905 36.2336 260.756 35.6758C262.689 34.5664 262.689 34.5664 264.689 34.5664ZM196.689 93.5664C195.454 97.2719 195.113 100.715 195.689 104.566C197.526 107.534 197.526 107.534 199.689 109.566C201.009 109.236 202.329 108.906 203.689 108.566C204.019 106.916 204.349 105.266 204.689 103.566C204.029 103.236 203.369 102.906 202.689 102.566C202.564 100.191 202.564 100.191 202.689 97.5664C204.689 95.5664 204.689 95.5664 207.064 95.5039C210.937 97.0713 211.934 99.9988 213.689 103.566C214.723 105.508 215.765 107.446 216.814 109.379C217.312 110.313 217.81 111.248 218.322 112.211C219.605 114.653 219.605 114.653 221.689 116.566C223.009 116.566 224.329 116.566 225.689 116.566C229.781 105.321 229.781 105.321 231.689 93.5664C230.039 93.5664 228.389 93.5664 226.689 93.5664C225.369 97.1964 224.049 100.826 222.689 104.566C219.571 101.448 218.227 97.4017 216.42 93.4141C214.497 90.2499 213.013 89.1144 209.689 87.5664C204.243 86.7494 200.117 89.4528 196.689 93.5664ZM190.689 118.566C190.483 124.355 191.098 128.996 192.689 134.566C194.669 134.566 196.649 134.566 198.689 134.566C198.122 130.437 198.122 130.437 196.689 126.566C197.305 126.723 197.92 126.88 198.554 127.041C201.347 127.747 204.143 128.438 206.939 129.129C207.908 129.376 208.876 129.623 209.873 129.877C210.808 130.106 211.742 130.335 212.705 130.57C213.564 130.785 214.423 131 215.308 131.221C217.782 131.58 219.338 131.35 221.689 130.566C222.019 128.586 222.349 126.606 222.689 124.566C206.941 119.834 206.941 119.834 190.689 118.566Z" fill="#41AAE0"/>
<path d="M160.689 104.566C163.338 106.933 164.776 109.359 166.369 112.52C167.134 114.02 167.134 114.02 167.915 115.55C168.459 116.628 169.004 117.706 169.564 118.816C173.992 127.466 178.55 136.008 183.377 144.441C187.298 151.296 191.117 158.18 194.752 165.191C199.73 174.786 205.041 184.187 210.506 193.512C211.416 195.092 212.266 196.708 213.088 198.336C215.466 201.648 218.524 203.612 221.877 205.879C222.612 206.387 223.348 206.896 224.105 207.42C231.607 212.579 239.206 217.595 246.795 222.624C253.62 227.156 260.351 231.798 267.024 236.551C272.83 240.684 278.74 244.643 284.689 248.566C287.941 250.73 291.19 252.898 294.439 255.066C296.018 256.119 297.596 257.171 299.174 258.223C300.346 259.004 301.518 259.785 302.689 260.566C301.689 262.566 301.689 262.566 299.689 265.566C293.094 265.171 287.558 263.18 281.385 260.887C277.926 259.651 274.478 258.606 270.939 257.629C265.601 256.15 260.367 254.479 255.127 252.691C248.532 250.447 241.899 248.441 235.189 246.566C227.798 244.5 220.512 242.241 213.252 239.755C207.222 237.702 201.136 235.898 194.993 234.215C189.903 232.78 189.903 232.78 187.689 230.566C187.023 228.229 187.023 228.229 186.428 225.266C186.2 224.159 185.972 223.053 185.737 221.914C185.494 220.706 185.252 219.498 185.002 218.254C184.466 215.666 183.928 213.079 183.385 210.492C183.176 209.496 183.176 209.496 182.963 208.48C181.578 201.93 179.988 195.438 178.377 188.941C174.283 172.314 170.772 155.566 167.231 138.815C166.178 133.841 165.105 128.873 164.006 123.91C163.768 122.833 163.529 121.756 163.284 120.646C162.862 118.75 162.438 116.854 162.009 114.959C161.83 114.152 161.651 113.344 161.467 112.512C161.239 111.499 161.239 111.499 161.006 110.465C160.689 108.566 160.689 108.566 160.689 104.566ZM183.689 161.566C184.247 164.91 185.041 167.6 186.689 170.566C185.555 170.381 184.421 170.195 183.252 170.004C182.076 169.86 180.901 169.715 179.689 169.566C178.289 170.753 178.289 170.753 178.377 174.129C178.436 178.766 179.75 182.929 182.689 186.566C184.755 187.334 184.755 187.334 186.689 187.566C186.655 188.181 186.62 188.796 186.584 189.43C186.557 190.238 186.53 191.046 186.502 191.879C186.467 192.679 186.432 193.48 186.396 194.305C186.505 196.64 186.505 196.64 188.076 198.359C189.621 199.766 189.621 199.766 191.689 199.566C191.442 198.556 191.194 197.545 190.939 196.504C190.655 192.019 191.418 190.841 193.764 187.277C195.153 184.71 194.967 182.41 194.689 179.566C193.699 179.236 192.709 178.906 191.689 178.566C191.628 177.432 191.566 176.298 191.502 175.129C190.887 169.919 188.438 165.948 185.689 161.566C185.029 161.566 184.369 161.566 183.689 161.566ZM227.689 225.566C227.359 226.886 227.029 228.206 226.689 229.566C228.009 230.556 229.329 231.546 230.689 232.566C229.699 232.896 228.709 233.226 227.689 233.566C228.729 236.582 229.659 237.546 232.377 239.316C236.04 240.699 238.807 240.799 242.689 240.566C243.019 238.916 243.349 237.266 243.689 235.566C244.293 236 244.896 236.433 245.518 236.879C246.317 237.436 247.116 237.993 247.939 238.566C248.728 239.123 249.517 239.68 250.33 240.254C252.822 241.89 252.822 241.89 256.689 241.566C255.174 236.879 251.31 234.968 247.377 232.441C246.38 231.778 246.38 231.778 245.363 231.102C239.346 227.161 235.052 225.278 227.689 225.566Z" fill="#20415D"/>
<path d="M375.818 294.398C377.689 295.566 377.689 295.566 378.689 298.566C377.617 301.083 376.141 303.234 374.689 305.566C373.085 305.088 371.481 304.609 369.877 304.129C368.984 303.862 368.09 303.595 367.17 303.32C365.335 302.763 363.509 302.173 361.689 301.566C356.585 300.961 352.898 300.784 348.502 303.629C346.392 306.506 346.392 306.506 346.564 310.191C347.358 313.613 347.358 313.613 349.74 315.16C353.43 316.919 357.013 317.649 361.002 318.441C368.277 320.027 374.739 321.573 379.357 327.824C381.789 332.831 381.305 338.134 380.689 343.566C378.177 348.871 374.492 352.413 369.041 354.656C365.132 355.718 361.459 355.909 357.439 355.879C356.69 355.875 355.941 355.872 355.169 355.868C347.252 355.714 340.275 354.176 333.689 349.566C334.255 345.608 335.498 342.901 337.689 339.566C338.54 339.996 338.54 339.996 339.408 340.434C347.439 344.422 354.562 346.999 363.689 345.566C366.49 344.368 366.49 344.368 368.689 342.566C369.938 339.161 369.938 339.161 369.689 335.566C366.614 331.321 362.831 330.562 357.939 329.566C348.984 327.518 342.19 325.401 336.689 317.566C334.986 312.456 334.717 306.605 336.373 301.43C343.538 287.724 363.515 289.511 375.818 294.398Z" fill="#24405C"/>
<path d="M43.5645 291.129C44.6267 291.141 44.6267 291.141 45.7104 291.154C52.3926 291.37 56.6513 292.617 61.4238 297.25C65.2546 301.491 67.6895 304.703 67.6895 310.566C64.0595 310.896 60.4295 311.226 56.6895 311.566C56.0707 310.174 56.0707 310.174 55.4395 308.754C53.6761 305.542 52.7624 304.402 49.6895 302.566C45.9626 301.9 42.4241 301.958 38.6895 302.566C35.7926 304.768 34.2965 306.352 32.6895 309.566C32.4172 313.978 32.4578 318.398 32.4395 322.816C32.4188 324.045 32.3982 325.273 32.377 326.539C32.3718 327.729 32.3666 328.919 32.3613 330.145C32.352 331.232 32.3426 332.319 32.333 333.439C32.8337 337.833 34.4224 341.159 37.377 344.441C42.0236 346.702 46.304 346.037 51.002 344.441C54.2109 342.203 55.2522 340.16 56.6895 336.566C59.9895 337.226 63.2895 337.886 66.6895 338.566C66.2082 343.619 65.0417 346.724 61.6895 350.566C54.9963 355.739 47.6148 356.486 39.416 356.055C33.0102 355.215 29.7583 352.691 25.377 348.191C20.2369 340.196 20.2299 333.524 20.3145 324.129C20.3029 322.844 20.2912 321.56 20.2793 320.236C20.3054 311.799 20.656 304.373 26.502 297.754C26.9621 297.211 27.4223 296.669 27.8965 296.109C32.6799 291.993 37.4056 291.036 43.5645 291.129Z" fill="#233F5B"/>
<path d="M517.689 291.566C521.319 291.566 524.949 291.566 528.689 291.566C529.019 303.446 529.349 315.326 529.689 327.566C538.143 318.827 538.143 318.827 541.439 312.941C542.807 310.996 542.807 310.996 544.689 309.566C549.1 308.9 553.266 309.094 557.689 309.566C553.955 314.885 549.988 319.377 545.131 323.707C543.464 325.411 543.464 325.411 543.888 327.332C544.925 330.224 546.417 332.58 548.068 335.172C548.742 336.237 549.415 337.303 550.109 338.4C550.816 339.507 551.523 340.614 552.252 341.754C553.652 343.954 555.048 346.156 556.443 348.359C557.065 349.334 557.687 350.309 558.328 351.313C559.689 353.566 559.689 353.566 559.689 354.566C555.568 355.107 551.793 355.323 547.689 354.566C544.761 352.041 543.343 349.02 541.689 345.566C540.737 343.875 539.779 342.188 538.814 340.504C538.102 339.194 537.392 337.882 536.689 336.566C533.811 337.857 531.553 338.982 529.689 341.566C529.109 344.759 529.109 344.759 529.002 348.254C528.936 349.433 528.87 350.613 528.803 351.828C528.765 352.732 528.728 353.635 528.689 354.566C525.059 354.566 521.429 354.566 517.689 354.566C517.689 333.776 517.689 312.986 517.689 291.566Z" fill="#2A445D"/>
<path d="M451.189 310.254C455.506 312.784 458.099 315.795 459.689 320.566C459.774 323.153 459.805 325.711 459.787 328.297C459.786 329.047 459.784 329.798 459.783 330.571C459.777 332.965 459.765 335.36 459.752 337.754C459.747 339.378 459.742 341.003 459.738 342.627C459.727 346.607 459.71 350.587 459.689 354.566C456.389 354.566 453.089 354.566 449.689 354.566C449.359 353.576 449.029 352.586 448.689 351.566C447.782 352.226 446.874 352.886 445.939 353.566C440.805 356.494 435.429 356.364 429.689 355.566C425.601 353.558 423.115 351.383 420.689 347.566C419.813 342.783 420.228 338.65 422.127 334.191C427.303 328.889 432.278 327.391 439.678 327.298C442.686 327.325 445.686 327.424 448.689 327.566C447.829 323.234 447.829 323.234 445.689 319.566C443.427 319.328 443.427 319.328 440.814 319.316C439.93 319.291 439.046 319.265 438.135 319.238C435.616 319.317 435.616 319.317 434.193 321.133C433.449 321.842 433.449 321.842 432.689 322.566C430.209 322.422 430.209 322.422 427.502 321.754C426.601 321.541 425.7 321.329 424.771 321.109C424.084 320.93 423.397 320.751 422.689 320.566C423.026 317.571 423.281 315.98 425.432 313.801C426.135 313.311 426.839 312.821 427.564 312.316C428.263 311.816 428.962 311.316 429.682 310.801C435.797 307.041 444.781 307.261 451.189 310.254ZM431.701 337.422C430.488 339.558 430.488 339.558 430.814 342.129C431.792 344.853 432.239 346.015 434.689 347.566C439.097 348.149 441.18 347.859 445.064 345.629C446.94 344.168 446.94 344.168 448.689 342.566C448.73 340.233 448.732 337.899 448.689 335.566C446.251 335.458 443.817 335.379 441.377 335.316C440.342 335.266 440.342 335.266 439.285 335.215C435.075 335.125 435.075 335.125 431.701 337.422Z" fill="#2B465F"/>
<path d="M262.564 309.816C267.102 312.357 270.844 314.562 272.689 319.566C272.858 322.285 272.922 324.897 272.885 327.613C272.882 328.384 272.879 329.156 272.876 329.95C272.865 332.406 272.84 334.861 272.814 337.316C272.804 338.984 272.795 340.652 272.787 342.32C272.765 346.402 272.731 350.484 272.689 354.566C269.719 354.566 266.749 354.566 263.689 354.566C263.689 352.916 263.689 351.266 263.689 349.566C263.029 349.566 262.369 349.566 261.689 349.566C261.359 350.556 261.029 351.546 260.689 352.566C254.93 355.947 249.281 356.451 242.689 355.566C238.8 353.761 237.178 352.299 234.814 348.754C233.494 345.013 233.197 342.509 233.689 338.566C236.163 333.714 238.935 331.154 243.689 328.566C246.814 327.973 249.889 327.872 253.064 327.816C253.896 327.787 254.727 327.757 255.584 327.727C257.619 327.656 259.654 327.609 261.689 327.566C261.242 323.088 261.242 323.088 258.689 319.566C256.355 319.209 256.355 319.209 253.752 319.254C252.877 319.237 252.001 319.22 251.1 319.203C248.224 319.637 247.641 320.528 245.689 322.566C242.115 322.311 239.086 321.698 235.689 320.566C237.064 315.373 240.433 312.562 244.689 309.566C250.291 307.699 257.033 307.575 262.564 309.816ZM245.736 336.891C244.073 339.554 244.244 341.514 244.689 344.566C246.031 346.721 246.031 346.721 248.689 347.566C253.023 347.757 256.526 347.323 260.189 344.941C262.125 341.877 262.258 339.129 262.689 335.566C260.251 335.485 257.816 335.426 255.377 335.379C254.687 335.354 253.996 335.329 253.285 335.303C249.279 335.228 249.279 335.228 245.736 336.891Z" fill="#28435D"/>
<path d="M313.865 102.105C319.299 106.457 320.617 112.147 321.877 118.629C322.041 119.418 322.206 120.208 322.375 121.021C322.69 122.541 322.997 124.062 323.298 125.584C323.608 127.156 323.942 128.723 324.283 130.289C325.295 135.96 325.783 142.213 323.189 147.504C319.316 152.249 315.804 154.17 309.713 154.945C304.887 155.131 301.53 154.964 297.127 152.879C291.481 147.522 290.498 141.356 289.002 134.004C288.777 132.982 288.552 131.961 288.32 130.908C284.668 113.312 284.668 113.312 287.916 107.293C294.776 98.5147 304.251 97.3891 313.865 102.105ZM295.689 113.566C295.577 115.551 295.577 115.551 295.936 117.676C296.046 118.471 296.157 119.266 296.271 120.086C296.939 124.046 297.739 127.962 298.627 131.879C298.796 132.663 298.966 133.448 299.141 134.256C300.287 139.649 300.287 139.649 302.689 144.566C305.781 146.112 308.284 145.86 311.689 145.566C314.414 144.426 314.414 144.426 315.689 141.566C316.178 134.942 314.314 128.145 312.939 121.691C312.795 120.966 312.651 120.241 312.502 119.493C311.367 114.557 309.752 111.847 305.689 108.566C300.795 107.343 298.427 109.621 295.689 113.566Z" fill="#44ABE0"/>
<path d="M271.17 109.555C274.869 111.731 277.103 113.497 278.689 117.566C281.257 128.588 275.173 137.332 269.875 146.483C268.369 149.13 267.016 151.826 265.689 154.566C266.535 154.361 267.381 154.156 268.252 153.945C274.395 152.486 280.403 151.183 286.689 150.566C287.184 154.526 287.184 154.526 287.689 158.566C283.646 159.989 279.695 161.054 275.486 161.855C274.342 162.075 273.197 162.294 272.018 162.52C270.837 162.741 269.656 162.963 268.439 163.191C266.645 163.536 266.645 163.536 264.814 163.887C255.976 165.566 255.976 165.566 253.689 165.566C251.814 161.706 251.549 159.682 252.689 155.566C253.568 153.763 254.521 151.994 255.525 150.258C256.095 149.263 256.665 148.269 257.252 147.244C257.85 146.216 258.448 145.188 259.064 144.129C266.858 132.602 266.858 132.602 267.689 119.566C264.64 118.041 262.047 118.331 258.689 118.566C256.689 119.566 256.689 119.566 255.689 121.566C254.963 124.675 254.963 124.675 254.689 127.566C251.719 127.566 248.749 127.566 245.689 127.566C245.206 119.591 245.206 119.591 247.252 115.254C253.623 108.229 262.104 105.943 271.17 109.555Z" fill="#43AADF"/>
<path d="M500.064 310.191C503.864 312.389 506.225 314.947 508.689 318.566C508.689 319.556 508.689 320.546 508.689 321.566C505.371 322.504 502.135 323.314 498.689 323.566C496.627 321.691 496.627 321.691 494.689 319.566C491.592 318.901 488.745 318.7 485.689 319.566C482.633 322.368 481.764 324.03 481.193 328.16C481.213 329.449 481.232 330.738 481.252 332.066C481.254 334 481.254 334 481.256 335.973C481.704 339.687 482.439 341.617 484.689 344.566C487.828 346.136 490.228 345.918 493.689 345.566C494.453 344.7 495.216 343.834 496.002 342.941C498.689 340.566 498.689 340.566 501.221 340.68C503.755 341.203 506.215 341.812 508.689 342.566C508.188 346.453 507.492 348.279 504.439 350.754C503.565 351.487 503.565 351.487 502.674 352.234C496.692 356.25 490.676 356.174 483.689 355.566C477.631 353.473 473.935 349.844 470.877 344.254C468.524 337.101 468.357 327.901 470.568 320.707C476.147 309.734 488.656 304.954 500.064 310.191Z" fill="#27425C"/>
<path d="M220.74 311.219C224.044 313.503 225.696 316.094 227.689 319.566C227.689 320.226 227.689 320.886 227.689 321.566C224.036 322.499 220.458 323.314 216.689 323.566C214.564 321.691 214.564 321.691 212.689 319.566C209.593 318.899 206.745 318.7 203.689 319.566C200.622 322.374 199.761 324.012 199.229 328.16C199.257 329.449 199.285 330.738 199.314 332.066C199.327 333.355 199.34 334.645 199.354 335.973C199.666 339.317 200.063 341.641 201.689 344.566C205.327 345.779 207.867 345.962 211.689 345.566C212.473 344.7 213.257 343.834 214.064 342.941C216.689 340.566 216.689 340.566 218.998 340.68C221.279 341.203 223.476 341.809 225.689 342.566C226.311 344.375 226.311 344.375 226.689 346.566C223.862 351.036 221.124 353.501 216.061 355.09C209.633 356.382 203.124 356.852 197.252 353.566C192.721 350.054 189.34 345.813 188.194 340.094C187.983 337.419 187.944 334.812 188.002 332.129C188.015 331.199 188.028 330.269 188.041 329.311C188.267 323.391 188.819 318.7 192.865 314.098C201.122 307.167 211.041 306.36 220.74 311.219Z" fill="#28435E"/>
<path d="M136.689 296.566C140.319 296.566 143.949 296.566 147.689 296.566C147.689 300.856 147.689 305.146 147.689 309.566C150.989 309.566 154.289 309.566 157.689 309.566C157.689 312.536 157.689 315.506 157.689 318.566C154.389 318.566 151.089 318.566 147.689 318.566C148.019 327.476 148.349 336.386 148.689 345.566C151.329 345.896 153.969 346.226 156.689 346.566C156.689 349.206 156.689 351.846 156.689 354.566C154.628 354.675 152.565 354.752 150.502 354.816C149.353 354.863 148.205 354.909 147.021 354.957C143.003 354.486 141.501 353.423 138.689 350.566C136.427 347.083 136.457 344.148 136.494 340.051C136.504 338.175 136.504 338.175 136.514 336.262C136.53 334.96 136.547 333.658 136.564 332.316C136.573 330.999 136.582 329.682 136.592 328.324C136.615 325.071 136.648 321.819 136.689 318.566C134.709 318.566 132.729 318.566 130.689 318.566C130.689 315.596 130.689 312.626 130.689 309.566C132.669 309.566 134.649 309.566 136.689 309.566C136.689 305.276 136.689 300.986 136.689 296.566Z" fill="#2B4761"/>
<path d="M393.689 296.566C396.989 296.566 400.289 296.566 403.689 296.566C403.689 300.856 403.689 305.146 403.689 309.566C406.989 309.566 410.289 309.566 413.689 309.566C413.689 312.536 413.689 315.506 413.689 318.566C410.389 318.566 407.089 318.566 403.689 318.566C403.828 322.713 403.976 326.858 404.127 331.004C404.166 332.188 404.206 333.372 404.246 334.592C404.288 335.717 404.33 336.841 404.373 338C404.41 339.042 404.446 340.084 404.484 341.158C404.425 343.516 404.425 343.516 405.689 344.566C407.037 344.797 408.393 344.978 409.752 345.129C411.051 345.273 412.351 345.418 413.689 345.566C413.689 348.536 413.689 351.506 413.689 354.566C400.797 355.427 400.797 355.427 396.939 352.254C393.544 348.199 393.569 345.279 393.592 340.148C393.595 338.895 393.598 337.641 393.602 336.35C393.61 335.039 393.618 333.729 393.627 332.379C393.632 331.044 393.637 329.708 393.641 328.373C393.652 325.104 393.669 321.835 393.689 318.566C391.379 318.566 389.069 318.566 386.689 318.566C386.689 315.596 386.689 312.626 386.689 309.566C388.999 309.566 391.309 309.566 393.689 309.566C393.689 305.276 393.689 300.986 393.689 296.566Z" fill="#25415C"/>
<path d="M309.689 196.566C312.864 198.221 315.066 200.32 316.689 203.566C316.632 205.484 316.544 207.401 316.439 209.316C316.266 213.572 316.266 213.572 317.834 217.375C318.302 217.83 318.77 218.285 319.252 218.754C321.906 221.816 322.09 222.303 321.877 226.129C321.288 229.552 320.4 231.316 317.752 233.566C312.406 237.058 308.028 237.379 301.689 236.566C298.014 234.729 296.006 232.515 294.689 228.566C294.647 226.233 294.649 223.899 294.689 221.566C295.139 217.564 295.139 217.564 292.689 215.379C290.24 211.934 290.106 209.855 290.299 205.719C290.891 202.458 292.278 200.777 294.689 198.566C299.379 195.704 304.362 195.789 309.689 196.566ZM298.689 205.566C298.356 208.566 298.356 208.566 298.689 211.566C299.349 212.226 300.009 212.886 300.689 213.566C305.725 213.328 305.725 213.328 309.689 210.566C310.023 208.066 310.023 208.066 309.689 205.566C307.746 203.186 307.746 203.186 304.189 203.316C300.633 203.186 300.633 203.186 298.689 205.566ZM303.877 220.754C302.287 223.18 302.325 224.72 302.689 227.566C304.633 229.946 304.633 229.946 308.189 229.816C311.746 229.946 311.746 229.946 313.689 227.566C314.106 224.566 314.106 224.566 313.689 221.566C310.172 219.222 307.596 218.318 303.877 220.754Z" fill="#264863"/>
<path d="M285.689 290.566C288.989 290.566 292.289 290.566 295.689 290.566C295.715 292.167 295.74 293.767 295.765 295.416C295.859 301.329 295.96 307.242 296.062 313.156C296.105 315.719 296.147 318.283 296.187 320.847C296.244 324.523 296.308 328.199 296.373 331.875C296.39 333.029 296.406 334.183 296.424 335.372C296.444 336.433 296.464 337.494 296.484 338.588C296.5 339.527 296.515 340.466 296.531 341.434C296.455 343.549 296.455 343.549 297.689 344.566C300.018 344.934 302.351 345.269 304.689 345.566C304.689 348.866 304.689 352.166 304.689 355.566C297.569 355.957 293.454 355.89 287.689 351.566C285.567 348.337 285.446 345.696 285.462 341.88C285.463 340.739 285.463 339.598 285.463 338.423C285.473 337.197 285.483 335.97 285.494 334.707C285.497 333.448 285.5 332.188 285.503 330.89C285.512 327.55 285.53 324.209 285.552 320.869C285.573 317.457 285.582 314.045 285.592 310.633C285.614 303.944 285.647 297.255 285.689 290.566Z" fill="#254059"/>
<path d="M75.6895 309.566C78.9895 309.566 82.2895 309.566 85.6895 309.566C86.3495 311.216 87.0095 312.866 87.6895 314.566C88.4938 313.741 89.2982 312.916 90.127 312.066C94.14 308.65 97.6014 309.181 102.689 309.566C102.689 312.866 102.689 316.166 102.689 319.566C100.248 319.697 97.8066 319.827 95.3652 319.957C91.8305 320.762 90.236 321.984 87.6895 324.566C86.9105 327.938 86.9105 327.938 86.9824 331.738C86.9597 332.762 86.9597 332.762 86.9366 333.806C86.8938 335.977 86.8849 338.146 86.877 340.316C86.8538 341.792 86.8284 343.267 86.8008 344.742C86.738 348.35 86.7056 351.958 86.6895 355.566C83.0595 355.566 79.4295 355.566 75.6895 355.566C75.6895 340.386 75.6895 325.206 75.6895 309.566Z" fill="#2A4660"/>
<path d="M371.689 81.5664C374.171 83.5982 375.89 85.9285 377.689 88.5664C378.329 89.3882 378.329 89.3882 378.982 90.2266C380.753 92.5896 381.756 93.9387 381.439 96.9414C381.192 97.4777 380.944 98.0139 380.689 98.5664C379.369 98.5664 378.049 98.5664 376.689 98.5664C374.768 96.5977 374.768 96.5977 372.939 94.0664C372.019 92.8135 372.019 92.8135 371.08 91.5352C370.621 90.8855 370.162 90.2358 369.689 89.5664C368.039 89.8964 366.389 90.2264 364.689 90.5664C365.739 92.8276 366.666 94.5417 368.377 96.3789C369.689 98.5664 369.689 98.5664 369.689 101.941C368.274 107.072 366.068 110.152 361.377 112.941C357.053 113.947 352.941 114.764 348.912 112.621C344.884 109.489 343.067 106.569 342.439 101.578C342.314 99.4414 342.314 99.4414 342.689 95.5664C344.689 93.5664 344.689 93.5664 346.689 92.5664C348.189 93.5664 348.189 93.5664 349.689 95.5664C349.818 97.4766 349.818 97.4766 349.752 99.6289C349.731 100.928 349.711 102.228 349.689 103.566C351.567 105.874 351.567 105.874 354.627 105.816C357.862 105.802 357.862 105.802 360.689 103.566C360.94 100.483 360.94 100.483 360.689 97.5664C359.761 97.1952 358.833 96.8239 357.877 96.4414C354.127 94.2357 353.44 92.4454 351.689 88.5664C364.909 79.9297 364.909 79.9297 371.689 81.5664Z" fill="#284964"/>
<path d="M307.689 109.566C310.287 112.353 311.249 114.878 312.076 118.559C312.292 119.511 312.508 120.464 312.73 121.445C313.05 122.928 313.05 122.928 313.377 124.441C313.602 125.422 313.827 126.403 314.059 127.414C316.155 136.855 316.155 136.855 315.689 141.566C314.127 143.941 314.127 143.941 311.689 145.566C305.794 146.29 305.794 146.29 302.877 144.379C299.567 139.327 298.677 133.452 297.502 127.629C297.217 126.307 297.217 126.307 296.926 124.959C295.964 120.222 295.326 116.322 296.689 111.566C299.943 107.688 303.065 108.305 307.689 109.566Z" fill="#1D405B"/>
<path d="M166.689 309.566C170.319 309.566 173.949 309.566 177.689 309.566C177.689 324.746 177.689 339.926 177.689 355.566C174.059 355.566 170.429 355.566 166.689 355.566C166.689 340.386 166.689 325.206 166.689 309.566Z" fill="#2C475F"/>
<path d="M110.689 309.566C114.319 309.566 117.949 309.566 121.689 309.566C121.689 324.746 121.689 339.926 121.689 355.566C118.059 355.566 114.429 355.566 110.689 355.566C110.689 340.386 110.689 325.206 110.689 309.566Z" fill="#2C4861"/>
<path d="M223.689 45.5664C223.689 46.2264 223.689 46.8864 223.689 47.5664C224.679 47.2364 225.669 46.9064 226.689 46.5664C225.316 50.5711 223.389 53.3271 220.689 56.5664C220.597 58.0287 220.597 58.0287 222.689 60.5664C207.074 70.1758 207.074 70.1758 205.364 71.2283C204.212 71.9373 203.06 72.6465 201.908 73.3559C199.024 75.1317 196.138 76.9042 193.248 78.6697C186.154 83.012 179.165 87.4777 172.273 92.1348C171.572 92.5982 170.87 93.0616 170.146 93.5391C169.527 93.9542 168.909 94.3694 168.271 94.7971C167.749 95.051 167.227 95.3048 166.689 95.5664C166.029 95.2364 165.369 94.9064 164.689 94.5664C177.733 82.6496 191.054 71.1113 204.775 59.9805C207.015 58.1251 209.222 56.2481 211.416 54.3398C212.052 53.7874 212.688 53.235 213.344 52.6658C214.598 51.5733 215.849 50.4765 217.095 49.3752C221.47 45.5664 221.47 45.5664 223.689 45.5664Z" fill="#23445E"/>
<path d="M211.689 88.5664C217.164 92.4768 219.206 98.5317 221.689 104.566C223.918 102.338 224.382 100.909 225.314 97.9414C225.705 96.7155 225.705 96.7155 226.104 95.4648C226.297 94.8383 226.49 94.2118 226.689 93.5664C228.339 93.5664 229.989 93.5664 231.689 93.5664C231.193 101.67 228.369 108.972 225.689 116.566C221.105 116.009 221.105 116.009 219.283 114.07C218.922 113.43 218.561 112.789 218.189 112.129C217.577 111.06 217.577 111.06 216.951 109.969C215.165 106.568 213.451 103.137 211.803 99.6679C210.749 97.4301 210.749 97.4301 208.689 95.5664C205.383 95.8562 205.383 95.8562 202.689 97.5664C202.649 99.2326 202.647 100.9 202.689 102.566C203.349 102.896 204.009 103.226 204.689 103.566C204.359 105.216 204.029 106.866 203.689 108.566C202.369 108.896 201.049 109.226 199.689 109.566C196.816 106.693 195.382 104.607 195.252 100.566C195.493 95.996 197.247 93.2491 200.189 89.8164C203.852 86.7642 207.34 87.5165 211.689 88.5664Z" fill="#274964"/>
<path d="M347.689 59.5664C357.843 60.8968 357.843 60.8968 361.377 63.6914C361.81 64.3102 362.243 64.9289 362.689 65.5664C361.305 68.85 359.871 70.4601 356.951 72.4766C356.213 72.9915 355.475 73.5065 354.715 74.0371C353.558 74.825 353.558 74.825 352.377 75.6289C351.617 76.1581 350.857 76.6872 350.074 77.2324C346.352 79.81 342.614 82.3025 338.689 84.5664C339.019 86.8764 339.349 89.1864 339.689 91.5664C338.369 92.2264 337.049 92.8864 335.689 93.5664C334.251 91.8173 332.814 90.067 331.377 88.3164C330.576 87.3419 329.776 86.3673 328.951 85.3633C323.689 78.8566 323.689 78.8566 323.689 76.5664C325.669 75.9064 327.649 75.2464 329.689 74.5664C330.679 76.0514 330.679 76.0514 331.689 77.5664C336.429 77.0586 339.663 74.84 343.439 72.1289C344.323 71.5169 344.323 71.5169 345.225 70.8926C348.468 68.6999 348.468 68.6999 350.689 65.5664C349.039 65.5664 347.389 65.5664 345.689 65.5664C345.359 64.9064 345.029 64.2464 344.689 63.5664C345.679 62.2464 346.669 60.9264 347.689 59.5664Z" fill="#264964"/>
<path d="M190.689 118.566C197.856 118.888 204.75 120.086 211.752 121.566C212.597 121.745 213.443 121.923 214.314 122.106C220.413 123.428 220.413 123.428 222.689 124.566C222.359 126.546 222.029 128.526 221.689 130.566C218.326 131.686 216.119 131.424 212.705 130.57C211.771 130.342 210.836 130.113 209.873 129.877C208.905 129.63 207.937 129.383 206.939 129.129C205.956 128.886 204.972 128.643 203.959 128.393C201.534 127.792 199.111 127.183 196.689 126.566C197.019 127.33 197.349 128.093 197.689 128.879C198.689 131.566 198.689 131.566 198.689 134.566C196.709 134.566 194.729 134.566 192.689 134.566C191.098 128.996 190.483 124.355 190.689 118.566Z" fill="#274862"/>
<path d="M397.689 132.566C397.582 133.253 397.475 133.941 397.365 134.648C397.185 136 397.185 136 397.002 137.379C396.874 138.272 396.747 139.166 396.615 140.086C396.441 142.637 396.441 142.637 398.17 144.391C398.922 144.973 398.922 144.973 399.689 145.566C399.648 144.453 399.607 143.339 399.564 142.191C399.689 138.566 399.689 138.566 401.689 136.566C404.314 136.441 404.314 136.441 406.689 136.566C406.029 137.226 405.369 137.886 404.689 138.566C404.447 140.777 404.447 140.777 404.564 143.191C404.592 144.417 404.592 144.417 404.619 145.668C404.642 146.294 404.666 146.921 404.689 147.566C406.009 147.896 407.329 148.226 408.689 148.566C409.019 147.576 409.349 146.586 409.689 145.566C410.349 145.566 411.009 145.566 411.689 145.566C411.885 151.621 411.885 151.621 411.689 153.566C411.029 154.226 410.369 154.886 409.689 155.566C403.956 155.075 399.031 152.791 394.814 148.941C392.21 144.804 391.357 141.44 391.689 136.566C393.382 133.096 393.772 132.566 397.689 132.566Z" fill="#3E9FDA"/>
<path d="M388.689 204.566C388.689 207.754 388.689 207.754 387.689 211.566C385.312 213.798 382.605 215.143 379.689 216.566C378.924 216.961 378.158 217.355 377.369 217.762C373 219.88 369.647 221.075 364.689 220.566C364.029 219.246 363.369 217.926 362.689 216.566C363.807 215.227 364.934 213.895 366.064 212.566C366.691 211.824 367.317 211.081 367.963 210.316C368.533 209.739 369.102 209.161 369.689 208.566C370.349 208.566 371.009 208.566 371.689 208.566C370.356 211.233 369.023 213.9 367.689 216.566C374.093 214.473 375.664 212.51 378.689 206.566C382.334 204.137 384.402 204.405 388.689 204.566Z" fill="#3E9ACE"/>
<path d="M296.689 18.5664C296.992 19.4211 297.295 20.2757 297.607 21.1562C298.026 22.261 298.445 23.3657 298.877 24.5039C299.283 25.6061 299.689 26.7082 300.107 27.8437C301.427 30.8085 301.427 30.8085 304.365 31.4453C305.132 31.4853 305.899 31.5252 306.689 31.5664C306.689 32.2264 306.689 32.8864 306.689 33.5664C300.273 33.6699 294.063 33.3115 287.689 32.5664C287.689 31.5764 287.689 30.5864 287.689 29.5664C289.339 29.2364 290.989 28.9064 292.689 28.5664C292.359 26.2564 292.029 23.9464 291.689 21.5664C289.379 21.5664 287.069 21.5664 284.689 21.5664C284.689 20.9064 284.689 20.2464 284.689 19.5664C288.671 18.2393 292.54 18.4972 296.689 18.5664Z" fill="#42A5DB"/>
<path d="M232.689 36.5664C233.349 37.8864 234.009 39.2064 234.689 40.5664C239.445 40.8982 241.718 40.1035 245.689 37.5664C246.349 37.8964 247.009 38.2264 247.689 38.5664C243.608 42.3627 242.251 43.5664 236.689 43.5664C235.331 45.2128 233.997 46.8794 232.689 48.5664C231.369 48.5664 230.049 48.5664 228.689 48.5664C228.463 49.3089 228.236 50.0514 228.002 50.8164C226.413 54.1449 224.739 55.5331 221.689 57.5664C220.367 57.9389 219.034 58.2804 217.689 58.5664C218.099 58.1075 218.509 57.6486 218.932 57.1758C219.47 56.5622 220.009 55.9486 220.564 55.3164C221.098 54.7131 221.632 54.1098 222.182 53.4883C223.669 51.5922 224.693 49.7535 225.689 47.5664C225.029 47.5664 224.369 47.5664 223.689 47.5664C223.359 46.5764 223.029 45.5864 222.689 44.5664C225.989 41.9264 229.289 39.2864 232.689 36.5664Z" fill="#367DA5"/>
<path d="M255.689 26.5664C253.733 34.6156 250.257 40.4402 243.338 45.1758C237.49 48.5664 237.49 48.5664 233.689 48.5664C233.939 46.6914 233.939 46.6914 234.689 44.5664C236.702 43.2476 238.403 42.6272 240.752 42.1289C243.095 41.4486 244.108 40.3845 245.689 38.5664C244.514 39.3089 244.514 39.3089 243.314 40.0664C240.689 41.5664 240.689 41.5664 238.689 41.5664C238.939 39.1914 238.939 39.1914 239.689 36.5664C241.752 35.2539 241.752 35.2539 243.689 34.5664C243.689 35.2264 243.689 35.8864 243.689 36.5664C245.009 35.2464 246.329 33.9264 247.689 32.5664C247.029 32.2364 246.369 31.9064 245.689 31.5664C251.818 26.5664 251.818 26.5664 255.689 26.5664Z" fill="#3FA2D6"/>
<path d="M183.689 161.566C186.689 162.566 186.689 162.566 187.857 164.203C189.997 168.506 191.182 171.64 190.689 176.566C187.347 176.641 184.886 176.632 181.689 175.566C182.205 179.379 182.95 180.946 185.689 183.566C185.689 184.556 185.689 185.546 185.689 186.566C183.877 186.504 183.877 186.504 181.689 185.566C178.738 180.401 178.283 176.462 178.689 170.566C179.019 170.236 179.349 169.906 179.689 169.566C182.029 169.854 184.363 170.186 186.689 170.566C186.194 169.638 185.699 168.71 185.189 167.754C183.689 164.566 183.689 164.566 183.689 161.566Z" fill="#42A1D4"/>
<path d="M227.689 225.566C229.999 225.566 232.309 225.566 234.689 225.566C233.699 225.896 232.709 226.226 231.689 226.566C231.689 227.226 231.689 227.886 231.689 228.566C232.824 228.855 233.958 229.144 235.127 229.441C236.303 229.813 237.478 230.184 238.689 230.566C239.019 231.226 239.349 231.886 239.689 232.566C239.029 232.566 238.369 232.566 237.689 232.566C237.689 233.556 237.689 234.546 237.689 235.566C239.339 235.896 240.989 236.226 242.689 236.566C243.019 237.556 243.349 238.546 243.689 239.566C242.689 240.566 242.689 240.566 239.627 240.941C234.752 240.477 231.402 238.748 227.689 235.566C227.689 234.906 227.689 234.246 227.689 233.566C228.679 233.236 229.669 232.906 230.689 232.566C229.369 231.576 228.049 230.586 226.689 229.566C227.019 228.246 227.349 226.926 227.689 225.566Z" fill="#378BBB"/>
<path d="M166.689 291.566C170.319 291.566 173.949 291.566 177.689 291.566C177.689 295.196 177.689 298.826 177.689 302.566C174.059 302.566 170.429 302.566 166.689 302.566C166.689 298.936 166.689 295.306 166.689 291.566Z" fill="#384F69"/>
<path d="M110.689 291.566C114.319 291.566 117.949 291.566 121.689 291.566C121.689 295.196 121.689 298.826 121.689 302.566C118.059 302.566 114.429 302.566 110.689 302.566C110.689 298.936 110.689 295.306 110.689 291.566Z" fill="#304962"/>
<path d="M390.689 190.566C392.627 191.316 392.627 191.316 394.689 192.566C395.318 194.645 395.318 194.645 395.689 196.566C386.63 200.772 377.742 204.808 367.689 205.566C367.689 204.576 367.689 203.586 367.689 202.566C368.315 202.381 368.941 202.195 369.585 202.003C372.418 201.149 375.241 200.264 378.064 199.379C379.049 199.087 380.034 198.795 381.049 198.494C381.99 198.194 382.931 197.895 383.9 197.586C384.77 197.319 385.639 197.052 386.535 196.777C389.363 195.188 389.792 193.608 390.689 190.566Z" fill="#3C9BD3"/>
<path d="M231.689 226.566C238.609 226.893 242.579 228.908 248.127 232.941C248.846 233.436 249.564 233.931 250.305 234.441C255.549 238.146 255.549 238.146 256.689 241.566C251.535 241.083 247.874 238.38 243.689 235.566C242.699 236.226 241.709 236.886 240.689 237.566C238.002 236.691 238.002 236.691 235.689 235.566C236.349 235.236 237.009 234.906 237.689 234.566C238.019 233.576 238.349 232.586 238.689 231.566C236.379 230.576 234.069 229.586 231.689 228.566C231.689 227.906 231.689 227.246 231.689 226.566Z" fill="#40A3DC"/>
<path d="M383.689 201.566C383.689 202.226 383.689 202.886 383.689 203.566C385.009 203.896 386.329 204.226 387.689 204.566C386.576 204.876 385.462 205.185 384.314 205.504C379.415 206.79 379.415 206.79 376.752 211.004C376.434 211.621 376.115 212.239 375.787 212.875C374.689 214.566 374.689 214.566 371.689 216.566C370.369 216.566 369.049 216.566 367.689 216.566C368.289 213.21 369.536 211.188 371.689 208.566C371.029 208.566 370.369 208.566 369.689 208.566C369.689 207.906 369.689 207.246 369.689 206.566C369.029 206.236 368.369 205.906 367.689 205.566C369.792 204.895 371.897 204.229 374.002 203.566C375.174 203.195 376.345 202.824 377.553 202.441C380.689 201.566 380.689 201.566 383.689 201.566Z" fill="#204A6A"/>
<path d="M312.689 220.566C313.689 221.566 313.689 221.566 313.877 224.504C313.689 227.566 313.689 227.566 311.689 229.566C308.189 229.816 308.189 229.816 304.689 229.566C302.689 227.566 302.689 227.566 302.377 225.129C302.689 222.566 302.689 222.566 303.752 220.691C306.831 218.903 309.333 219.82 312.689 220.566Z" fill="#3EA6DE"/>
<path d="M304.189 203.316C307.689 203.566 307.689 203.566 309.689 205.566C310.064 208.004 310.064 208.004 309.689 210.566C307.526 212.891 306.22 213.503 303.064 213.879C300.689 213.566 300.689 213.566 298.689 211.566C298.439 208.566 298.439 208.566 298.689 205.566C300.689 203.566 300.689 203.566 304.189 203.316Z" fill="#3FA9E0"/>
<path d="M190.689 173.566C191.019 173.566 191.349 173.566 191.689 173.566C193.525 179.53 191.407 183.318 188.689 188.566C187.039 188.236 185.389 187.906 183.689 187.566C184.349 187.236 185.009 186.906 185.689 186.566C184.077 183.854 182.44 181.193 180.689 178.566C181.019 177.246 181.349 175.926 181.689 174.566C186.144 175.556 186.144 175.556 190.689 176.566C190.689 175.576 190.689 174.586 190.689 173.566Z" fill="#254E6D"/>
<path d="M321.689 23.5664C321.689 24.8864 321.689 26.2064 321.689 27.5664C322.657 29.5823 323.655 31.5839 324.689 33.5664C324.689 34.2264 324.689 34.8864 324.689 35.5664C322.709 35.5664 320.729 35.5664 318.689 35.5664C318.018 34.1101 317.353 32.6513 316.689 31.1914C316.318 30.3793 315.947 29.5672 315.564 28.7305C314.689 26.5664 314.689 26.5664 314.689 24.5664C312.379 24.5664 310.069 24.5664 307.689 24.5664C307.689 23.9064 307.689 23.2464 307.689 22.5664C309.271 22.3431 310.855 22.1383 312.439 21.9414C313.321 21.8254 314.203 21.7094 315.111 21.5898C317.918 21.5643 319.323 22.118 321.689 23.5664Z" fill="#44A4D9"/>
<path d="M243.689 28.5664C243.689 29.2264 243.689 29.8864 243.689 30.5664C244.349 30.5664 245.009 30.5664 245.689 30.5664C245.689 31.2264 245.689 31.8864 245.689 32.5664C247.009 32.2364 248.329 31.9064 249.689 31.5664C248.409 33.2739 247.072 34.9401 245.689 36.5664C245.029 36.5664 244.369 36.5664 243.689 36.5664C243.689 35.9064 243.689 35.2464 243.689 34.5664C240.668 36.5805 239.083 38.1992 237.689 41.5664C236.699 41.2364 235.709 40.9064 234.689 40.5664C234.359 38.9164 234.029 37.2664 233.689 35.5664C234.976 34.3938 236.269 33.2285 237.564 32.0664C238.643 31.0919 238.643 31.0919 239.744 30.0977C241.689 28.5664 241.689 28.5664 243.689 28.5664Z" fill="#285370"/>
<path d="M192.689 178.566C193.349 178.896 194.009 179.226 194.689 179.566C195.072 183.491 194.759 185.765 192.627 189.004C190.69 192.049 190.69 192.575 190.939 196.504C191.187 197.515 191.434 198.525 191.689 199.566C187.814 197.691 187.814 197.691 186.689 196.566C185.601 189.415 189.058 184.543 192.689 178.566Z" fill="#3C9DD2"/>
<path d="M231.689 46.5664C232.019 47.2264 232.349 47.8864 232.689 48.5664C234.714 49.2185 234.714 49.2185 236.689 49.5664C235.396 53.4474 233.782 54.1333 230.377 56.3164C229.411 56.9506 228.446 57.5848 227.451 58.2383C224.689 59.5664 224.689 59.5664 222.334 59.2695C221.791 59.0375 221.249 58.8055 220.689 58.5664C221.453 57.8445 222.216 57.1227 223.002 56.3789C225.414 53.8549 226.924 51.5363 228.689 48.5664C229.679 47.9064 230.669 47.2464 231.689 46.5664Z" fill="#1E415C"/>
<path d="M406.689 136.566C409.252 138.754 409.252 138.754 411.689 141.566C411.609 145.013 411.134 146.122 408.689 148.566C406.064 148.191 406.064 148.191 403.689 147.566C403.608 146.109 403.55 144.65 403.502 143.191C403.467 142.379 403.432 141.567 403.396 140.73C403.493 140.016 403.59 139.302 403.689 138.566C404.679 137.906 405.669 137.246 406.689 136.566Z" fill="#357EAA"/>
<path d="M300.689 261.566C304.805 262.208 307.993 264.436 311.439 266.629C312.041 267.006 312.643 267.383 313.264 267.771C314.742 268.698 316.216 269.632 317.689 270.566C314.633 271.545 312.837 271.575 309.799 270.57C309.09 270.342 308.381 270.113 307.65 269.877C306.921 269.63 306.191 269.383 305.439 269.129C304.694 268.886 303.949 268.643 303.182 268.393C301.348 267.793 299.518 267.181 297.689 266.566C298.349 266.236 299.009 265.906 299.689 265.566C300.342 263.542 300.342 263.542 300.689 261.566Z" fill="#315068"/>
</svg>
