<svg width="267" height="267" viewBox="0 0 267 267" fill="none" xmlns="http://www.w3.org/2000/svg">
<path d="M113.734 0.606693C114.706 0.90221 115.678 1.19773 116.679 1.5022C124.448 4.06083 132.192 6.68689 139.922 9.3606C141.702 9.97355 143.483 10.5862 145.264 11.1985C149.589 12.6864 153.912 14.1785 158.234 15.6731C158.234 16.0031 158.234 16.3331 158.234 16.6731C154.934 16.6731 151.634 16.6731 148.234 16.6731C148.234 17.3331 148.234 17.9931 148.234 18.6731C150.544 18.6731 152.854 18.6731 155.234 18.6731C155.906 20.1294 156.571 21.5882 157.234 23.0481C157.606 23.8602 157.977 24.6723 158.359 25.509C159.234 27.6731 159.234 27.6731 159.234 29.6731C161.214 29.6731 163.194 29.6731 165.234 29.6731C164.873 28.8906 164.512 28.1082 164.141 27.302C163.445 25.7841 163.445 25.7841 162.734 24.2356C162.27 23.2263 161.806 22.2169 161.328 21.177C160.234 18.6731 160.234 18.6731 160.234 17.6731C165.79 17.2619 170.08 18.7266 175.227 20.5598C176.09 20.8587 176.954 21.1576 177.844 21.4655C180.602 22.4219 183.356 23.3906 186.109 24.3606C189.71 25.6183 193.312 26.871 196.914 28.1223C198.234 28.5821 198.234 28.5821 199.581 29.0512C206.275 31.3714 213.01 33.5277 219.782 35.6074C224.289 36.9988 228.764 38.4784 233.234 39.9856C234.021 40.2492 234.807 40.5128 235.617 40.7844C237.49 41.4125 239.362 42.0426 241.234 42.6731C237.913 43.7802 236.157 43.5959 232.711 43.1848C231.614 43.0565 230.517 42.9281 229.386 42.7959C228.223 42.6523 227.059 42.5086 225.859 42.3606C224.673 42.2189 223.486 42.0772 222.264 41.9312C215.56 41.119 208.889 40.2112 202.223 39.134C191.881 37.5388 181.457 36.5907 171.043 35.616C158.956 34.484 146.936 33.1803 134.93 31.3684C130.207 30.6562 125.477 30.0487 120.734 29.4856C120.046 29.4017 119.357 29.3179 118.647 29.2314C115.157 28.8251 111.748 28.5853 108.234 28.6731C108.924 29.4839 109.614 30.2947 110.324 31.1301C116.371 38.2504 122.34 45.4262 128.234 52.6731C129.734 54.5069 131.234 56.3402 132.734 58.1731C134.964 60.8969 137.193 63.6219 139.414 66.3528C143.934 71.9016 148.517 77.3889 153.152 82.8411C156.013 86.2112 158.827 89.6132 161.609 93.0481C165.776 98.1704 170.096 103.147 174.435 108.124C178.357 112.632 182.165 117.22 185.926 121.865C189.15 125.787 192.469 129.625 195.784 133.471C198.906 137.1 201.969 140.768 204.984 144.486C208.928 149.344 213.033 154.037 217.234 158.673C218.833 155.763 219.67 153.162 220.277 149.904C220.46 148.949 220.643 147.995 220.831 147.012C221.124 145.452 221.124 145.452 221.422 143.861C223.293 134.193 225.343 124.583 227.547 114.986C230.688 101.274 233.619 87.5243 236.482 73.7524C238.297 65.0332 240.183 56.3405 242.234 47.6731C242.894 47.6731 243.554 47.6731 244.234 47.6731C247.097 62.4304 249.764 77.2134 252.309 92.0286C252.682 94.1942 253.055 96.3598 253.428 98.5255C254.201 103.019 254.973 107.512 255.744 112.005C256.729 117.743 257.719 123.479 258.71 129.216C259.478 133.669 260.244 138.122 261.008 142.576C261.372 144.692 261.737 146.808 262.103 148.923C262.613 151.876 263.119 154.83 263.624 157.783C263.773 158.64 263.922 159.497 264.076 160.38C264.488 162.808 264.872 165.237 265.234 167.673C265.37 168.572 265.505 169.471 265.644 170.396C265.759 171.285 265.874 172.174 265.992 173.09C266.099 173.892 266.207 174.693 266.317 175.519C266.216 178.154 265.545 179.03 263.727 180.888C262.546 181.828 261.338 182.735 260.109 183.611C258.804 184.63 257.5 185.649 256.195 186.669C255.53 187.17 254.864 187.672 254.179 188.188C251.271 190.409 248.509 192.789 245.734 195.173C244.661 196.081 243.587 196.989 242.512 197.896C237.319 202.29 232.161 206.725 227 211.157C223.499 214.162 219.995 217.165 216.491 220.166C213.534 222.7 210.579 225.237 207.629 227.779C202.296 232.369 196.953 236.931 191.484 241.361C187.119 244.902 182.949 248.612 178.793 252.396C173.517 257.092 168.116 261.752 162.234 265.673C163.767 260.466 166.056 255.93 168.609 251.173C169.049 250.347 169.488 249.521 169.94 248.67C174.269 240.553 178.68 232.48 183.098 224.411C186.876 217.507 190.619 210.585 194.363 203.662C197.067 198.664 199.78 193.671 202.512 188.689C210.122 174.811 210.122 174.811 217.234 160.673C214.151 161.338 211.067 162.005 207.984 162.673C206.962 162.895 205.94 163.116 204.886 163.344C198.712 164.686 192.543 166.048 186.379 167.435C164.208 172.417 141.982 177.106 119.728 181.702C113.191 183.054 106.658 184.426 100.129 185.814C95.708 186.753 91.2863 187.687 86.8646 188.621C84.753 189.069 82.6419 189.519 80.5314 189.971C77.5991 190.6 74.665 191.219 71.7305 191.837C70.8691 192.024 70.0077 192.211 69.1203 192.404C64.3837 193.391 60.073 193.864 55.2344 193.673C56.7279 186.407 58.7605 179.402 60.9727 172.325C61.5166 170.57 61.5166 170.57 62.0716 168.78C63.2266 165.056 64.3867 161.333 65.5469 157.611C66.3148 155.137 67.0824 152.664 67.8496 150.191C69.6608 144.355 71.4772 138.52 73.2959 132.686C74.1182 130.046 74.9379 127.405 75.7559 124.763C77.8076 118.146 79.9202 111.558 82.1628 105.003C85.7351 94.5589 88.8865 84.0527 91.7981 73.4067C93.6429 66.6881 95.695 60.1148 97.9688 53.5286C100.723 45.3524 102.916 36.9811 105.234 28.6731C102.42 30.3782 99.6078 32.0872 96.7969 33.7981C95.9732 34.2993 95.1495 34.8005 94.3008 35.3169C89.3633 38.3339 84.4979 41.4141 79.7656 44.7473C78.2344 45.6731 78.2344 45.6731 76.2344 45.6731C76.6719 43.4856 76.6719 43.4856 78.2344 40.6731C80.1953 39.4387 80.1953 39.4387 82.5469 38.2356C88.0857 35.3861 91.1886 32.4801 93.4219 26.4856C93.69 25.5575 93.9581 24.6293 94.2344 23.6731C94.8944 22.6831 95.5544 21.6931 96.2344 20.6731C95.6801 20.9502 95.1258 21.2274 94.5547 21.5129C91.7812 22.8997 89.0078 24.2864 86.2344 25.6731C85.5744 25.3431 84.9144 25.0131 84.2344 24.6731C84.7745 20.8068 86.3615 19.3327 89.2969 16.8606C90.1103 16.1658 90.9237 15.471 91.7617 14.7551C92.5777 14.0681 93.3937 13.381 94.2344 12.6731C95.6118 11.4675 96.987 10.2594 98.3594 9.0481C99.0155 8.49122 99.6716 7.93435 100.348 7.3606C102.266 5.70947 102.266 5.70947 103.902 3.7981C107.18 0.310049 109.046 -0.831968 113.734 0.606693ZM125.234 13.6731C125.234 14.3331 125.234 14.9931 125.234 15.6731C127.544 15.6731 129.854 15.6731 132.234 15.6731C132.564 17.9831 132.894 20.2931 133.234 22.6731C131.584 23.0031 129.934 23.3331 128.234 23.6731C128.234 24.6631 128.234 25.6531 128.234 26.6731C134.607 27.4182 140.817 27.7766 147.234 27.6731C147.234 27.0131 147.234 26.3531 147.234 25.6731C146.467 25.6331 145.7 25.5932 144.91 25.552C142.234 24.6731 142.234 24.6731 140.652 21.9504C140.043 20.2972 140.043 20.2972 139.422 18.6106C139.003 17.5059 138.584 16.4011 138.152 15.2629C137.849 14.4083 137.546 13.5536 137.234 12.6731C131.15 12.475 131.15 12.475 125.234 13.6731ZM128.734 100.736C124.645 108.744 127.666 119.658 129.484 128.048C129.689 129.088 129.894 130.129 130.105 131.2C131.519 137.906 132.983 143.156 138.621 147.521C143.954 149.872 150.086 149.528 155.652 148.017C159.767 146.226 162.647 143.931 164.609 139.743C166.915 132.106 164.934 124.125 163.484 116.486C163.328 115.642 163.171 114.799 163.01 113.93C161.593 107.019 159.83 100.739 154.172 96.2356C144.053 90.8532 136.974 93.9376 128.734 100.736ZM87.2344 109.923C85.7729 113.942 86.0435 117.409 86.2344 121.673C89.2044 121.673 92.1744 121.673 95.2344 121.673C95.5231 120.559 95.8119 119.446 96.1094 118.298C97.2344 114.673 97.2344 114.673 99.2344 112.673C105.212 112.13 105.212 112.13 108.234 113.736C109.838 116.842 108.908 119.314 108.234 122.673C106.867 125.807 106.867 125.807 105.145 128.939C104.525 130.076 103.906 131.213 103.268 132.384C102.611 133.564 101.954 134.743 101.297 135.923C100.643 137.118 99.9899 138.313 99.3379 139.509C94.6735 148.014 94.6735 148.014 92.2344 151.673C92.5362 154.631 92.9016 157.007 94.2344 159.673C97.8598 159.05 101.485 158.424 105.109 157.798C106.123 157.624 107.136 157.45 108.18 157.271C114.552 156.168 120.9 154.978 127.234 153.673C127.997 150.266 128.351 148.023 127.234 144.673C120.131 145.691 113.159 146.772 106.234 148.673C107.086 146.942 107.941 145.214 108.797 143.486C109.337 142.389 109.877 141.292 110.434 140.161C111.616 137.871 112.868 135.615 114.191 133.404C118.539 126.081 120.842 120.237 119.234 111.673C117.511 107.894 116.019 106.261 112.734 103.798C102.759 100.592 94.2302 102.053 87.2344 109.923ZM233.484 128.111C231.539 132.098 231.964 135.48 233.234 139.673C235.566 143.685 238.061 146.146 242.297 148.048C243.266 148.254 244.236 148.461 245.234 148.673C246.142 148.921 247.049 149.168 247.984 149.423C248.727 149.506 249.469 149.588 250.234 149.673C252.899 147.008 252.564 145.574 252.609 141.861C252.535 137.973 252.368 135.941 250.609 132.423C248.298 130.429 248.298 130.429 245.109 130.236C242.111 130.401 242.111 130.401 240.234 132.673C240.068 136.257 240.068 136.257 240.234 139.673C238.715 138.497 238.715 138.497 237.234 136.673C237.16 134.193 237.16 134.193 237.547 131.486C237.667 130.585 237.787 129.683 237.91 128.755C238.017 128.068 238.124 127.381 238.234 126.673C235.243 126.356 235.243 126.356 233.484 128.111ZM231.234 184.673C231.003 185.456 230.772 186.24 230.534 187.047C229.234 189.673 229.234 189.673 227.08 190.883C226.21 191.15 225.341 191.417 224.445 191.693C223.504 191.992 222.563 192.292 221.594 192.601C220.609 192.893 219.624 193.185 218.609 193.486C217.617 193.797 216.624 194.108 215.602 194.429C213.151 195.195 210.696 195.942 208.234 196.673C208.234 197.993 208.234 199.313 208.234 200.673C208.894 200.673 209.554 200.673 210.234 200.673C208.174 204.278 205.883 207.476 203.234 210.673C203.894 211.993 204.554 213.313 205.234 214.673C210.933 215.22 214.579 213.426 219.484 210.861C220.204 210.504 220.923 210.148 221.664 209.781C226.087 207.533 226.087 207.533 229.234 203.673C229.402 201.048 229.402 201.048 229.234 198.673C226.759 198.178 226.759 198.178 224.234 197.673C224.234 196.683 224.234 195.693 224.234 194.673C224.849 194.552 225.464 194.431 226.098 194.306C226.906 194.138 227.714 193.971 228.547 193.798C229.347 193.636 230.148 193.473 230.973 193.306C233.487 192.728 233.487 192.728 236.234 190.673C235.453 188.178 235.453 188.178 234.234 185.673C233.244 185.343 232.254 185.013 231.234 184.673Z" fill="#1E415C"/>
<path d="M107.234 27.6731C117.065 28.1235 126.73 29.1959 136.479 30.5161C142.557 31.3355 148.632 32.0641 154.734 32.6731C164.734 33.6787 174.687 35.0048 184.648 36.3293C195.579 37.7823 206.522 39.0527 217.484 40.2356C219.243 40.4261 219.243 40.4261 221.038 40.6204C228.429 41.4085 235.824 42.091 243.234 42.6731C243.564 44.3231 243.894 45.9731 244.234 47.6731C243.574 47.6731 242.914 47.6731 242.234 47.6731C242.105 48.6805 242.105 48.6805 241.973 49.7083C240.781 58.1821 239.039 66.485 237.175 74.8335C235.977 80.206 234.846 85.5849 233.781 90.9856C232.299 98.4567 230.63 105.876 228.922 113.298C225.473 128.379 222.306 143.511 219.234 158.673C216.234 158.673 216.234 158.673 214.289 156.872C213.57 156.043 212.85 155.215 212.109 154.361C211.313 153.447 210.516 152.533 209.695 151.591C206.579 147.897 203.527 144.154 200.488 140.396C198.283 137.732 196.003 135.165 193.672 132.611C190.09 128.676 186.753 124.612 183.461 120.435C180.806 117.142 178.06 113.937 175.297 110.736C171.739 106.613 168.224 102.469 164.797 98.2356C161.246 93.8562 157.573 89.6016 153.859 85.3606C149.167 79.9943 144.688 74.5118 140.329 68.873C137.084 64.6967 133.702 60.6661 130.234 56.6731C122.141 47.3417 114.581 37.6015 107.234 27.6731ZM188.234 53.6731C186.517 56.1181 186.517 56.1181 185.234 58.6731C186.301 59.9694 186.301 59.9694 188.797 59.7356C189.601 59.715 190.406 59.6943 191.234 59.6731C186.798 64.7212 181.295 68.7646 175.234 71.6731C172.957 71.4934 172.957 71.4934 171.234 70.6731C170.904 70.0131 170.574 69.3531 170.234 68.6731C168.254 69.3331 166.274 69.9931 164.234 70.6731C165.907 74.4266 168.272 77.5994 170.734 80.8606C171.34 81.6795 171.34 81.6795 171.957 82.5149C174.178 85.5644 174.178 85.5644 177.234 87.6731C178.224 87.0131 179.214 86.3531 180.234 85.6731C179.904 83.3631 179.574 81.0531 179.234 78.6731C180.213 78.0324 181.191 77.3918 182.199 76.7317C189.431 71.9697 196.526 67.1638 203.234 61.6731C202.593 59.1888 202.593 59.1888 201.234 56.6731C198.961 55.4267 198.961 55.4267 196.297 54.8606C194.984 54.5106 194.984 54.5106 193.645 54.1536C191.154 53.5753 191.154 53.5753 188.234 53.6731ZM192.234 82.6731C194.63 87.8248 194.63 87.8248 198.984 91.1106C199.727 91.2962 200.469 91.4818 201.234 91.6731C201.422 94.5481 201.422 94.5481 201.234 97.6731C197.782 99.9747 196.287 100.018 192.234 99.6731C191.574 99.0131 190.914 98.3531 190.234 97.6731C190.299 95.6431 190.363 93.6132 190.43 91.5833C190.413 89.4304 190.413 89.4304 188.234 87.6731C187.574 87.3431 186.914 87.0131 186.234 86.6731C184.568 87.6639 184.568 87.6639 183.234 89.6731C182.684 95.2713 183.062 98.8605 186.234 103.673C189.244 106.94 190.711 107.615 195.172 108.111C200.346 107.818 203.832 106.038 207.547 102.423C209.674 98.9572 210.306 96.7508 210.234 92.6731C208.797 90.3586 207.133 88.6638 205.234 86.6731C205.234 86.0131 205.234 85.3531 205.234 84.6731C206.884 84.3431 208.534 84.0131 210.234 83.6731C212.874 86.9731 215.514 90.2731 218.234 93.6731C219.554 93.0131 220.874 92.3531 222.234 91.6731C221.72 87.202 220.1 84.841 217.234 81.4231C216.512 80.5517 215.791 79.6803 215.047 78.7825C212.73 75.8214 212.73 75.8214 208.922 75.1731C202.536 75.1731 197.396 79.3007 192.234 82.6731Z" fill="#41A9DF"/>
<path d="M217.234 160.673C215.951 164.787 214.413 168.531 212.434 172.357C211.596 173.978 211.596 173.978 210.742 175.631C210.141 176.779 209.541 177.928 208.922 179.111C208.612 179.705 208.303 180.3 207.984 180.913C203.183 190.135 198.167 199.215 192.998 208.236C188.652 215.848 184.576 223.58 180.56 231.37C177.025 238.213 173.355 244.967 169.531 251.653C166.769 256.529 164.43 261.518 162.234 266.673C159.984 266.923 159.984 266.923 157.234 266.673C155.881 265.36 154.551 264.023 153.234 262.673C151.548 261.451 149.829 260.274 148.086 259.134C146.588 258.147 146.588 258.147 145.06 257.14C144.004 256.45 142.947 255.759 141.859 255.048C134.995 250.521 128.142 246 121.484 241.173C116.662 237.681 111.769 234.329 106.801 231.048C99.1634 225.985 91.6254 220.772 84.0605 215.601C81.3458 213.749 78.6268 211.903 75.9062 210.06C75.0652 209.488 74.2242 208.917 73.3577 208.328C71.7946 207.266 70.2301 206.206 68.6638 205.149C63.3509 201.532 58.2681 197.669 53.2344 193.673C55.2344 192.673 55.2344 192.673 58.4473 192.685C62.1138 192.673 65.2456 192.229 68.8269 191.483C70.7327 191.092 70.7327 191.092 72.6769 190.692C74.0542 190.402 75.4314 190.112 76.8086 189.822C78.256 189.521 79.7035 189.222 81.1511 188.923C84.9704 188.133 88.7879 187.334 92.6052 186.533C96.3834 185.742 100.163 184.96 103.943 184.177C130.041 178.763 156.101 173.177 182.124 167.415C212.593 160.673 212.593 160.673 217.234 160.673ZM133.234 194.673C130.563 198.68 130.396 201.959 131.234 206.673C132.684 208.951 134.385 210.682 136.234 212.673C135.904 213.663 135.574 214.653 135.234 215.673C134.863 220.684 135.116 223.664 138.234 227.673C142.188 231.27 145.376 231.176 150.539 231.025C155.474 230.381 158.109 228.099 161.109 224.298C162.506 221.04 162.808 219.187 162.234 215.673C160.997 214.374 160.997 214.374 159.734 213.048C157.644 210.854 157.248 209.929 157.078 206.837C157.13 205.793 157.181 204.749 157.234 203.673C157.427 199.59 157.536 197.18 154.859 193.986C150.581 190.217 147.566 190.34 142.004 190.384C138.199 190.781 136.054 192.142 133.234 194.673Z" fill="#3DA8DE"/>
<path d="M105.234 28.6731C104.024 34.2979 102.716 39.8794 101.172 45.4231C100.966 46.1655 100.759 46.9079 100.547 47.6729C98.0506 56.5165 95.2853 65.2782 92.5417 74.0476C90.462 80.6981 88.417 87.3534 86.4844 94.0481C84.6671 100.332 82.6617 106.532 80.543 112.72C79.4492 115.967 78.438 119.236 77.4346 122.511C74.1588 133.182 70.8413 143.839 67.5258 154.497C66.4188 158.056 65.3125 161.615 64.2078 165.174C63.1283 168.652 62.0472 172.129 60.965 175.606C60.5549 176.925 60.1454 178.243 59.7366 179.562C59.1688 181.393 58.5988 183.223 58.0286 185.053C57.7053 186.093 57.3821 187.133 57.049 188.204C56.2344 190.673 56.2344 190.673 55.2344 192.673C51.5857 191.457 51.4114 190.698 49.668 187.396C49.1879 186.499 48.7078 185.603 48.2131 184.679C47.7045 183.708 47.1959 182.737 46.6719 181.736C45.5866 179.703 44.5007 177.67 43.4141 175.638C42.8749 174.623 42.3358 173.609 41.7803 172.563C39.6678 168.614 37.4874 164.705 35.2969 160.798C30.8679 152.861 26.5342 144.874 22.2136 136.877C17.8698 128.838 13.4976 120.815 9.104 112.803C7.16984 109.267 5.2719 105.751 3.52344 102.118C2.47266 99.5495 2.47266 99.5495 0.234375 98.6731C-0.078125 95.9231 -0.078125 95.9231 0.234375 92.6731C2.50466 90.3379 4.43789 88.9732 7.48438 87.8254C10.9066 86.3914 13.9326 84.4786 17.0469 82.4856C18.479 81.5804 19.9113 80.6755 21.3438 79.7708C22.1243 79.2759 22.9048 78.7811 23.709 78.2712C28.3949 75.3058 33.0958 72.3643 37.7969 69.4231C38.8152 68.7857 39.8336 68.1482 40.8828 67.4915C47.9063 63.104 54.9649 58.778 62.0469 54.4856C73.3932 47.6078 84.657 40.5987 95.7852 33.3723C96.779 32.7291 97.7729 32.0858 98.7969 31.4231C99.6232 30.8817 100.449 30.3403 101.301 29.7825C103.234 28.6731 103.234 28.6731 105.234 28.6731ZM37.2344 87.6731C35.9992 91.3785 35.6575 94.8221 36.2344 98.6731C38.0709 101.64 38.0709 101.64 40.2344 103.673C41.5544 103.343 42.8744 103.013 44.2344 102.673C44.5644 101.023 44.8944 99.3731 45.2344 97.6731C44.5744 97.3431 43.9144 97.0131 43.2344 96.6731C43.1094 94.2981 43.1094 94.2981 43.2344 91.6731C45.2344 89.6731 45.2344 89.6731 47.6094 89.6106C51.4818 91.178 52.4785 94.1055 54.2344 97.6731C55.268 99.6149 56.3101 101.552 57.3594 103.486C57.857 104.42 58.3545 105.355 58.8672 106.318C60.1501 108.76 60.1501 108.76 62.2344 110.673C63.5544 110.673 64.8744 110.673 66.2344 110.673C70.3263 99.4275 70.3263 99.4275 72.2344 87.6731C70.5844 87.6731 68.9344 87.6731 67.2344 87.6731C65.9144 91.3031 64.5944 94.9331 63.2344 98.6731C60.1159 95.5547 58.7721 91.5084 56.9648 87.5208C55.042 84.3566 53.5575 83.2211 50.2344 81.6731C44.7875 80.8561 40.6624 83.5595 37.2344 87.6731ZM31.2344 112.673C31.0276 118.462 31.6428 123.102 33.2344 128.673C35.2144 128.673 37.1944 128.673 39.2344 128.673C38.667 124.543 38.667 124.543 37.2344 120.673C37.8496 120.83 38.4648 120.986 39.0986 121.148C41.8915 121.854 44.6878 122.545 47.4844 123.236C48.4525 123.482 49.4205 123.729 50.418 123.984C51.3525 124.212 52.2871 124.441 53.25 124.677C54.1088 124.892 54.9677 125.106 55.8525 125.328C58.3267 125.686 59.8825 125.456 62.2344 124.673C62.5644 122.693 62.8944 120.713 63.2344 118.673C47.4861 113.941 47.4861 113.941 31.2344 112.673Z" fill="#41AAE0"/>
<path d="M1.23438 98.6731C3.88316 101.039 5.32092 103.465 6.91406 106.626C7.67916 108.126 7.67916 108.126 8.45972 109.657C9.0041 110.735 9.54849 111.813 10.1094 112.923C14.5367 121.573 19.0951 130.115 23.9219 138.548C27.8432 145.403 31.662 152.287 35.2969 159.298C40.2747 168.893 45.5854 178.294 51.051 187.619C51.9613 189.199 52.8108 190.815 53.6328 192.443C56.0109 195.754 59.0694 197.718 62.4219 199.986C63.1573 200.494 63.8927 201.003 64.6504 201.527C72.1515 206.686 79.751 211.702 87.3396 216.731C94.1652 221.262 100.896 225.905 107.569 230.657C113.375 234.79 119.285 238.749 125.234 242.673C128.486 244.837 131.735 247.005 134.984 249.173C136.562 250.225 138.141 251.277 139.719 252.329C140.891 253.111 142.062 253.892 143.234 254.673C142.234 256.673 142.234 256.673 140.234 259.673C133.638 259.277 128.103 257.287 121.93 254.993C118.471 253.758 115.023 252.713 111.484 251.736C106.146 250.257 100.912 248.586 95.6719 246.798C89.0766 244.554 82.4436 242.548 75.7344 240.673C68.3434 238.607 61.057 236.348 53.7969 233.862C47.7671 231.809 41.681 230.005 35.5381 228.321C30.4478 226.886 30.4478 226.886 28.2344 224.673C27.5676 222.336 27.5676 222.336 26.9727 219.372C26.7447 218.266 26.5168 217.16 26.282 216.02C26.0394 214.813 25.7968 213.605 25.5469 212.361C25.011 209.773 24.4729 207.185 23.9297 204.599C23.7209 203.603 23.7209 203.603 23.5078 202.586C22.1226 196.037 20.5327 189.545 18.9219 183.048C14.8283 166.421 11.3167 149.673 7.77554 132.921C6.72269 127.948 5.64963 122.98 4.55078 118.017C4.31247 116.94 4.07415 115.862 3.82861 114.753C3.40712 112.856 2.98258 110.961 2.5542 109.066C2.37518 108.258 2.19616 107.451 2.01172 106.618C1.78343 105.605 1.78343 105.605 1.55054 104.572C1.23438 102.673 1.23438 102.673 1.23438 98.6731ZM24.2344 155.673C24.7917 159.017 25.5861 161.706 27.2344 164.673C26.1 164.487 24.9656 164.302 23.7969 164.111C22.6213 163.966 21.4456 163.822 20.2344 163.673C18.8335 164.86 18.8335 164.86 18.9219 168.236C18.9805 172.872 20.2953 177.036 23.2344 180.673C25.2994 181.44 25.2994 181.44 27.2344 181.673C27.1996 182.288 27.1648 182.903 27.1289 183.536C27.1018 184.345 27.0748 185.153 27.0469 185.986C27.0121 186.786 26.9773 187.587 26.9414 188.411C27.0504 190.747 27.0504 190.747 28.6211 192.466C30.1655 193.873 30.1655 193.873 32.2344 193.673C31.9869 192.662 31.7394 191.652 31.4844 190.611C31.1996 186.126 31.9627 184.947 34.3086 181.384C35.6975 178.817 35.5118 176.516 35.2344 173.673C34.2444 173.343 33.2544 173.013 32.2344 172.673C32.1725 171.539 32.1106 170.404 32.0469 169.236C31.4318 164.026 28.983 160.055 26.2344 155.673C25.5744 155.673 24.9144 155.673 24.2344 155.673ZM68.2344 219.673C67.9044 220.993 67.5744 222.313 67.2344 223.673C68.5544 224.663 69.8744 225.653 71.2344 226.673C70.2444 227.003 69.2544 227.333 68.2344 227.673C69.2743 230.689 70.2035 231.653 72.9219 233.423C76.5847 234.805 79.3519 234.906 83.2344 234.673C83.5644 233.023 83.8944 231.373 84.2344 229.673C84.8377 230.106 85.4409 230.539 86.0625 230.986C86.8617 231.542 87.6609 232.099 88.4844 232.673C89.2733 233.23 90.0622 233.787 90.875 234.361C93.367 235.997 93.367 235.997 97.2344 235.673C95.719 230.985 91.8546 229.075 87.9219 226.548C86.9251 225.885 86.9251 225.885 85.9082 225.208C79.8909 221.268 75.5967 219.384 68.2344 219.673Z" fill="#20415D"/>
<path d="M154.41 96.2121C159.844 100.564 161.162 106.254 162.422 112.736C162.586 113.525 162.751 114.315 162.92 115.128C163.234 116.648 163.542 118.168 163.843 119.691C164.153 121.263 164.487 122.83 164.828 124.396C165.84 130.066 166.328 136.32 163.734 141.611C159.861 146.356 156.349 148.277 150.258 149.052C145.432 149.238 142.075 149.071 137.672 146.986C132.026 141.629 131.043 135.463 129.547 128.111C129.322 127.089 129.097 126.067 128.865 125.015C125.213 107.419 125.213 107.419 128.461 101.4C135.321 92.6214 144.796 91.4958 154.41 96.2121ZM136.234 107.673C136.122 109.658 136.122 109.658 136.48 111.782C136.591 112.578 136.702 113.373 136.816 114.192C137.484 118.153 138.284 122.069 139.172 125.986C139.341 126.77 139.511 127.554 139.686 128.363C140.832 133.756 140.832 133.756 143.234 138.673C146.326 140.219 148.829 139.967 152.234 139.673C154.959 138.533 154.959 138.533 156.234 135.673C156.723 129.048 154.859 122.252 153.484 115.798C153.34 115.073 153.196 114.347 153.047 113.6C151.912 108.664 150.297 105.953 146.234 102.673C141.34 101.449 138.972 103.728 136.234 107.673Z" fill="#44ABE0"/>
<path d="M111.715 103.661C115.414 105.837 117.648 107.603 119.234 111.673C121.802 122.695 115.718 131.439 110.419 140.59C108.914 143.237 107.561 145.933 106.234 148.673C107.08 148.468 107.926 148.263 108.797 148.052C114.94 146.593 120.948 145.289 127.234 144.673C127.729 148.633 127.729 148.633 128.234 152.673C124.191 154.096 120.24 155.161 116.031 155.962C114.887 156.181 113.742 156.4 112.563 156.626C111.382 156.848 110.201 157.07 108.984 157.298C107.19 157.642 107.19 157.642 105.359 157.993C96.521 159.673 96.521 159.673 94.2344 159.673C92.3592 155.812 92.0942 153.789 93.2344 149.673C94.1133 147.87 95.0656 146.101 96.0703 144.364C96.6401 143.37 97.2099 142.375 97.7969 141.351C98.395 140.323 98.9931 139.295 99.6094 138.236C107.403 126.709 107.403 126.709 108.234 113.673C105.185 112.148 102.592 112.437 99.2344 112.673C97.2344 113.673 97.2344 113.673 96.2344 115.673C95.5075 118.781 95.5075 118.781 95.2344 121.673C92.2644 121.673 89.2944 121.673 86.2344 121.673C85.751 113.698 85.751 113.698 87.7969 109.361C94.1679 102.336 102.649 100.049 111.715 103.661Z" fill="#43AADF"/>
<path d="M150.234 190.673C153.409 192.328 155.611 194.427 157.234 197.673C157.177 199.591 157.089 201.508 156.984 203.423C156.811 207.679 156.811 207.679 158.379 211.482C158.847 211.937 159.315 212.392 159.797 212.861C162.451 215.923 162.635 216.409 162.422 220.236C161.833 223.659 160.945 225.423 158.297 227.673C152.95 231.165 148.573 231.486 142.234 230.673C138.559 228.835 136.551 226.622 135.234 222.673C135.192 220.34 135.193 218.006 135.234 215.673C135.684 211.671 135.684 211.671 133.234 209.486C130.784 206.04 130.651 203.962 130.844 199.825C131.436 196.564 132.823 194.883 135.234 192.673C139.924 189.811 144.906 189.895 150.234 190.673ZM139.234 199.673C138.901 202.673 138.901 202.673 139.234 205.673C139.894 206.333 140.554 206.993 141.234 207.673C146.269 207.434 146.269 207.434 150.234 204.673C150.568 202.173 150.568 202.173 150.234 199.673C148.291 197.293 148.291 197.293 144.734 197.423C141.178 197.293 141.178 197.293 139.234 199.673ZM144.422 214.861C142.832 217.287 142.87 218.827 143.234 221.673C145.178 224.053 145.178 224.053 148.734 223.923C152.291 224.053 152.291 224.053 154.234 221.673C154.651 218.673 154.651 218.673 154.234 215.673C150.717 213.328 148.14 212.424 144.422 214.861Z" fill="#264863"/>
<path d="M212.234 75.6731C214.716 77.7049 216.435 80.0352 218.234 82.6731C218.874 83.4949 218.874 83.4949 219.527 84.3333C221.298 86.6963 222.3 88.0454 221.984 91.0481C221.737 91.5844 221.489 92.1206 221.234 92.6731C219.914 92.6731 218.594 92.6731 217.234 92.6731C215.312 90.7044 215.312 90.7044 213.484 88.1731C212.564 86.9201 212.564 86.9201 211.625 85.6419C211.166 84.9922 210.707 84.3425 210.234 83.6731C208.584 84.0031 206.934 84.3331 205.234 84.6731C206.284 86.9343 207.211 88.6484 208.922 90.4856C210.234 92.6731 210.234 92.6731 210.234 96.0481C208.819 101.179 206.613 104.259 201.922 107.048C197.598 108.054 193.486 108.87 189.457 106.728C185.429 103.596 183.612 100.675 182.984 95.6848C182.859 93.5481 182.859 93.5481 183.234 89.6731C185.234 87.6731 185.234 87.6731 187.234 86.6731C188.734 87.6731 188.734 87.6731 190.234 89.6731C190.363 91.5833 190.363 91.5833 190.297 93.7356C190.276 95.035 190.256 96.3344 190.234 97.6731C192.112 99.9806 192.112 99.9806 195.172 99.9231C198.407 99.9083 198.407 99.9083 201.234 97.6731C201.485 94.5895 201.485 94.5895 201.234 91.6731C200.306 91.3019 199.378 90.9306 198.422 90.5481C194.672 88.3424 193.985 86.5521 192.234 82.6731C205.454 74.0364 205.454 74.0364 212.234 75.6731Z" fill="#284964"/>
<path d="M148.234 103.673C150.832 106.46 151.794 108.985 152.621 112.665C152.837 113.618 153.053 114.571 153.275 115.552C153.595 117.035 153.595 117.035 153.922 118.548C154.147 119.529 154.372 120.51 154.604 121.521C156.699 130.962 156.699 130.962 156.234 135.673C154.672 138.048 154.672 138.048 152.234 139.673C146.339 140.397 146.339 140.397 143.422 138.486C140.112 133.433 139.222 127.559 138.047 121.736C137.762 120.414 137.762 120.414 137.471 119.066C136.509 114.329 135.87 110.428 137.234 105.673C140.488 101.794 143.61 102.412 148.234 103.673Z" fill="#1D405B"/>
<path d="M64.2344 39.6731C64.2344 40.3331 64.2344 40.9931 64.2344 41.6731C65.2244 41.3431 66.2144 41.0131 67.2344 40.6731C65.8613 44.6778 63.9338 47.4338 61.2344 50.6731C61.1419 52.1353 61.1419 52.1353 63.2344 54.6731C47.6191 64.2825 47.6191 64.2825 45.9087 65.3349C44.7567 66.044 43.6048 66.7532 42.453 67.4625C39.5692 69.2384 36.6834 71.0109 33.7932 72.7764C26.6985 77.1187 19.7103 81.5844 12.8184 86.2415C12.1165 86.7049 11.4146 87.1683 10.6914 87.6458C10.0724 88.0609 9.45342 88.4761 8.81567 88.9038C8.29385 89.1577 7.77202 89.4115 7.23438 89.6731C6.57437 89.3431 5.91438 89.0131 5.23438 88.6731C18.2781 76.7563 31.599 65.218 45.3203 54.0872C47.5599 52.2318 49.7671 50.3548 51.9609 48.4465C52.5972 47.8941 53.2334 47.3416 53.8889 46.7725C55.1432 45.68 56.3938 44.5832 57.6404 43.4819C62.0145 39.6731 62.0145 39.6731 64.2344 39.6731Z" fill="#23445E"/>
<path d="M52.2344 82.6731C57.709 86.5835 59.7507 92.6384 62.2344 98.6731C64.4626 96.4448 64.9268 95.0155 65.8594 92.0481C66.25 90.8222 66.25 90.8222 66.6484 89.5715C66.8418 88.945 67.0352 88.3185 67.2344 87.6731C68.8844 87.6731 70.5344 87.6731 72.2344 87.6731C71.7382 95.7765 68.9143 103.078 66.2344 110.673C61.6501 110.115 61.6501 110.115 59.8281 108.177C59.4672 107.536 59.1062 106.896 58.7344 106.236C58.1214 105.166 58.1214 105.166 57.4961 104.075C55.7101 100.675 53.9963 97.2438 52.3477 93.7746C51.294 91.5368 51.294 91.5368 49.2344 89.6731C45.9275 89.9629 45.9275 89.9629 43.2344 91.6731C43.1937 93.3392 43.1917 95.007 43.2344 96.6731C43.8944 97.0031 44.5544 97.3331 45.2344 97.6731C44.9044 99.3231 44.5744 100.973 44.2344 102.673C42.9144 103.003 41.5944 103.333 40.2344 103.673C37.3609 100.8 35.927 98.7133 35.7969 94.6731C36.0379 90.1027 37.792 87.3558 40.7344 83.9231C44.397 80.8709 47.8848 81.6232 52.2344 82.6731Z" fill="#274964"/>
<path d="M188.234 53.6731C198.388 55.0035 198.388 55.0035 201.922 57.7981C202.355 58.4168 202.788 59.0356 203.234 59.6731C201.85 62.9567 200.416 64.5668 197.496 66.5833C196.758 67.0982 196.02 67.6132 195.26 68.1438C194.103 68.9317 194.103 68.9317 192.922 69.7356C192.162 70.2648 191.402 70.7939 190.619 71.3391C186.897 73.9167 183.159 76.4092 179.234 78.6731C179.564 80.9831 179.894 83.2931 180.234 85.6731C178.914 86.3331 177.594 86.9931 176.234 87.6731C174.796 85.9239 173.359 84.1737 171.922 82.4231C171.121 81.4486 170.321 80.474 169.496 79.47C164.234 72.9633 164.234 72.9633 164.234 70.6731C166.214 70.0131 168.194 69.3531 170.234 68.6731C171.224 70.1581 171.224 70.1581 172.234 71.6731C176.974 71.1653 180.208 68.9467 183.984 66.2356C184.868 65.6236 184.868 65.6236 185.77 64.9993C189.013 62.8066 189.013 62.8066 191.234 59.6731C189.584 59.6731 187.934 59.6731 186.234 59.6731C185.904 59.0131 185.574 58.3531 185.234 57.6731C186.224 56.3531 187.214 55.0331 188.234 53.6731Z" fill="#264964"/>
<path d="M31.2344 112.673C38.4008 112.995 45.2946 114.193 52.2969 115.673C53.1423 115.851 53.9876 116.03 54.8587 116.213C60.958 117.535 60.958 117.535 63.2344 118.673C62.9044 120.653 62.5744 122.633 62.2344 124.673C58.8712 125.793 56.6643 125.531 53.25 124.677C52.3154 124.448 51.3809 124.219 50.418 123.984C49.4499 123.737 48.4818 123.49 47.4844 123.236C46.5008 122.993 45.5173 122.75 44.5039 122.499C42.0785 121.899 39.6557 121.29 37.2344 120.673C37.5644 121.436 37.8944 122.199 38.2344 122.986C39.2344 125.673 39.2344 125.673 39.2344 128.673C37.2544 128.673 35.2744 128.673 33.2344 128.673C31.6428 123.102 31.0276 118.462 31.2344 112.673Z" fill="#274862"/>
<path d="M238.234 126.673C238.127 127.36 238.02 128.047 237.91 128.755C237.73 130.107 237.73 130.107 237.547 131.486C237.419 132.379 237.292 133.272 237.16 134.193C236.985 136.743 236.985 136.743 238.715 138.497C239.467 139.079 239.467 139.079 240.234 139.673C240.193 138.559 240.152 137.446 240.109 136.298C240.234 132.673 240.234 132.673 242.234 130.673C244.859 130.548 244.859 130.548 247.234 130.673C246.574 131.333 245.914 131.993 245.234 132.673C244.992 134.884 244.992 134.884 245.109 137.298C245.136 138.524 245.136 138.524 245.164 139.775C245.187 140.401 245.21 141.028 245.234 141.673C246.554 142.003 247.874 142.333 249.234 142.673C249.564 141.683 249.894 140.693 250.234 139.673C250.894 139.673 251.554 139.673 252.234 139.673C252.43 145.728 252.43 145.728 252.234 147.673C251.574 148.333 250.914 148.993 250.234 149.673C244.501 149.182 239.576 146.898 235.359 143.048C232.755 138.911 231.901 135.546 232.234 130.673C233.927 127.203 234.317 126.673 238.234 126.673Z" fill="#3E9FDA"/>
<path d="M229.234 198.673C229.234 201.861 229.234 201.861 228.234 205.673C225.857 207.905 223.15 209.25 220.234 210.673C219.469 211.068 218.703 211.462 217.914 211.868C213.545 213.986 210.192 215.182 205.234 214.673C204.574 213.353 203.914 212.033 203.234 210.673C204.352 209.334 205.479 208.002 206.609 206.673C207.236 205.931 207.862 205.188 208.508 204.423C209.078 203.846 209.647 203.268 210.234 202.673C210.894 202.673 211.554 202.673 212.234 202.673C210.901 205.34 209.568 208.006 208.234 210.673C214.638 208.58 216.209 206.617 219.234 200.673C222.879 198.244 224.947 198.511 229.234 198.673Z" fill="#3E9ACE"/>
<path d="M137.234 12.6731C137.537 13.5277 137.84 14.3824 138.152 15.2629C138.571 16.3677 138.99 17.4724 139.422 18.6106C139.828 19.7127 140.234 20.8149 140.652 21.9504C141.972 24.9152 141.972 24.9152 144.91 25.552C145.677 25.592 146.444 25.6319 147.234 25.6731C147.234 26.3331 147.234 26.9931 147.234 27.6731C140.817 27.7766 134.607 27.4182 128.234 26.6731C128.234 25.6831 128.234 24.6931 128.234 23.6731C129.884 23.3431 131.534 23.0131 133.234 22.6731C132.904 20.3631 132.574 18.0531 132.234 15.6731C129.924 15.6731 127.614 15.6731 125.234 15.6731C125.234 15.0131 125.234 14.3531 125.234 13.6731C129.216 12.346 133.085 12.6039 137.234 12.6731Z" fill="#42A5DB"/>
<path d="M73.2344 30.6731C73.8944 31.9931 74.5544 33.3131 75.2344 34.6731C79.99 35.0049 82.2632 34.2102 86.2344 31.6731C86.8944 32.0031 87.5544 32.3331 88.2344 32.6731C84.1534 36.4694 82.7957 37.6731 77.2344 37.6731C75.8761 39.3195 74.5418 40.9861 73.2344 42.6731C71.9144 42.6731 70.5944 42.6731 69.2344 42.6731C69.0075 43.4156 68.7806 44.1581 68.5469 44.9231C66.9583 48.2516 65.2844 49.6398 62.2344 51.6731C60.9115 52.0456 59.5787 52.3871 58.2344 52.6731C58.6443 52.2142 59.0542 51.7553 59.4766 51.2825C60.0154 50.6689 60.5542 50.0553 61.1094 49.4231C61.643 48.8198 62.1767 48.2165 62.7266 47.595C64.2141 45.6989 65.2376 43.8602 66.2344 41.6731C65.5744 41.6731 64.9144 41.6731 64.2344 41.6731C63.9044 40.6831 63.5744 39.6931 63.2344 38.6731C66.5344 36.0331 69.8344 33.3931 73.2344 30.6731Z" fill="#367DA5"/>
<path d="M96.2344 20.6731C94.278 28.7223 90.8023 34.5469 83.8828 39.2825C78.0349 42.6731 78.0349 42.6731 74.2344 42.6731C74.4844 40.7981 74.4844 40.7981 75.2344 38.6731C77.2472 37.3543 78.9477 36.7339 81.2969 36.2356C83.6402 35.5553 84.6534 34.4912 86.2344 32.6731C85.0588 33.4156 85.0588 33.4156 83.8594 34.1731C81.2344 35.6731 81.2344 35.6731 79.2344 35.6731C79.4844 33.2981 79.4844 33.2981 80.2344 30.6731C82.2969 29.3606 82.2969 29.3606 84.2344 28.6731C84.2344 29.3331 84.2344 29.9931 84.2344 30.6731C85.5544 29.3531 86.8744 28.0331 88.2344 26.6731C87.5744 26.3431 86.9144 26.0131 86.2344 25.6731C92.3634 20.6731 92.3634 20.6731 96.2344 20.6731Z" fill="#3FA2D6"/>
<path d="M24.2344 155.673C27.2344 156.673 27.2344 156.673 28.4023 158.31C30.5415 162.613 31.727 165.747 31.2344 170.673C27.8918 170.747 25.4308 170.739 22.2344 169.673C22.7496 173.486 23.4947 175.053 26.2344 177.673C26.2344 178.663 26.2344 179.653 26.2344 180.673C24.4219 180.611 24.4219 180.611 22.2344 179.673C19.2827 174.508 18.8278 170.569 19.2344 164.673C19.5644 164.343 19.8944 164.013 20.2344 163.673C22.5738 163.96 24.9083 164.292 27.2344 164.673C26.7394 163.745 26.2444 162.817 25.7344 161.861C24.2344 158.673 24.2344 158.673 24.2344 155.673Z" fill="#42A1D4"/>
<path d="M68.2344 219.673C70.5444 219.673 72.8544 219.673 75.2344 219.673C74.2444 220.003 73.2544 220.333 72.2344 220.673C72.2344 221.333 72.2344 221.993 72.2344 222.673C73.3687 222.962 74.5031 223.251 75.6719 223.548C76.8475 223.919 78.0231 224.291 79.2344 224.673C79.5644 225.333 79.8944 225.993 80.2344 226.673C79.5744 226.673 78.9144 226.673 78.2344 226.673C78.2344 227.663 78.2344 228.653 78.2344 229.673C79.8844 230.003 81.5344 230.333 83.2344 230.673C83.5644 231.663 83.8944 232.653 84.2344 233.673C83.2344 234.673 83.2344 234.673 80.1719 235.048C75.297 234.584 71.9464 232.855 68.2344 229.673C68.2344 229.013 68.2344 228.353 68.2344 227.673C69.2244 227.343 70.2144 227.013 71.2344 226.673C69.9144 225.683 68.5944 224.693 67.2344 223.673C67.5644 222.353 67.8944 221.033 68.2344 219.673Z" fill="#378BBB"/>
<path d="M231.234 184.673C233.172 185.423 233.172 185.423 235.234 186.673C235.863 188.751 235.863 188.751 236.234 190.673C227.174 194.879 218.287 198.914 208.234 199.673C208.234 198.683 208.234 197.693 208.234 196.673C208.86 196.487 209.486 196.301 210.13 196.11C212.963 195.256 215.786 194.371 218.609 193.486C219.594 193.194 220.579 192.902 221.594 192.601C222.535 192.301 223.476 192.001 224.445 191.693C225.315 191.426 226.184 191.158 227.08 190.883C229.907 189.295 230.336 187.715 231.234 184.673Z" fill="#3C9BD3"/>
<path d="M72.2344 220.673C79.1543 221 83.1236 223.015 88.6719 227.048C89.3905 227.543 90.1092 228.038 90.8496 228.548C96.0942 232.252 96.0942 232.252 97.2344 235.673C92.0797 235.19 88.4189 232.487 84.2344 229.673C83.2444 230.333 82.2544 230.993 81.2344 231.673C78.5469 230.798 78.5469 230.798 76.2344 229.673C76.8944 229.343 77.5544 229.013 78.2344 228.673C78.5644 227.683 78.8944 226.693 79.2344 225.673C76.9244 224.683 74.6144 223.693 72.2344 222.673C72.2344 222.013 72.2344 221.353 72.2344 220.673Z" fill="#40A3DC"/>
<path d="M224.234 195.673C224.234 196.333 224.234 196.993 224.234 197.673C225.554 198.003 226.874 198.333 228.234 198.673C227.121 198.982 226.007 199.292 224.859 199.611C219.96 200.897 219.96 200.897 217.297 205.111C216.978 205.728 216.66 206.346 216.332 206.982C215.234 208.673 215.234 208.673 212.234 210.673C210.914 210.673 209.594 210.673 208.234 210.673C208.834 207.317 210.081 205.295 212.234 202.673C211.574 202.673 210.914 202.673 210.234 202.673C210.234 202.013 210.234 201.353 210.234 200.673C209.574 200.343 208.914 200.013 208.234 199.673C210.337 199.001 212.441 198.336 214.547 197.673C215.719 197.302 216.89 196.931 218.098 196.548C221.234 195.673 221.234 195.673 224.234 195.673Z" fill="#204A6A"/>
<path d="M153.234 214.673C154.234 215.673 154.234 215.673 154.422 218.611C154.234 221.673 154.234 221.673 152.234 223.673C148.734 223.923 148.734 223.923 145.234 223.673C143.234 221.673 143.234 221.673 142.922 219.236C143.234 216.673 143.234 216.673 144.297 214.798C147.376 213.01 149.878 213.927 153.234 214.673Z" fill="#3EA6DE"/>
<path d="M144.734 197.423C148.234 197.673 148.234 197.673 150.234 199.673C150.609 202.111 150.609 202.111 150.234 204.673C148.071 206.997 146.765 207.61 143.609 207.986C141.234 207.673 141.234 207.673 139.234 205.673C138.984 202.673 138.984 202.673 139.234 199.673C141.234 197.673 141.234 197.673 144.734 197.423Z" fill="#3FA9E0"/>
<path d="M31.2344 167.673C31.5644 167.673 31.8944 167.673 32.2344 167.673C34.0695 173.637 31.9518 177.425 29.2344 182.673C27.5844 182.343 25.9344 182.013 24.2344 181.673C24.8944 181.343 25.5544 181.013 26.2344 180.673C24.6217 177.961 22.9854 175.3 21.2344 172.673C21.5644 171.353 21.8944 170.033 22.2344 168.673C26.6894 169.663 26.6894 169.663 31.2344 170.673C31.2344 169.683 31.2344 168.693 31.2344 167.673Z" fill="#254E6D"/>
<path d="M162.234 17.6731C162.234 18.9931 162.234 20.3131 162.234 21.6731C163.202 23.6889 164.2 25.6906 165.234 27.6731C165.234 28.3331 165.234 28.9931 165.234 29.6731C163.254 29.6731 161.274 29.6731 159.234 29.6731C158.563 28.2168 157.898 26.758 157.234 25.2981C156.863 24.486 156.492 23.6739 156.109 22.8371C155.234 20.6731 155.234 20.6731 155.234 18.6731C152.924 18.6731 150.614 18.6731 148.234 18.6731C148.234 18.0131 148.234 17.3531 148.234 16.6731C149.816 16.4498 151.4 16.245 152.984 16.0481C153.866 15.9321 154.748 15.816 155.656 15.6965C158.463 15.671 159.868 16.2246 162.234 17.6731Z" fill="#44A4D9"/>
<path d="M84.2344 22.6731C84.2344 23.3331 84.2344 23.9931 84.2344 24.6731C84.8944 24.6731 85.5544 24.6731 86.2344 24.6731C86.2344 25.3331 86.2344 25.9931 86.2344 26.6731C87.5544 26.3431 88.8744 26.0131 90.2344 25.6731C88.9538 27.3806 87.6167 29.0468 86.2344 30.6731C85.5744 30.6731 84.9144 30.6731 84.2344 30.6731C84.2344 30.0131 84.2344 29.3531 84.2344 28.6731C81.2133 30.6871 79.6277 32.3059 78.2344 35.6731C77.2444 35.3431 76.2544 35.0131 75.2344 34.6731C74.9044 33.0231 74.5744 31.3731 74.2344 29.6731C75.5207 28.5005 76.8136 27.3352 78.1094 26.1731C79.1883 25.1986 79.1883 25.1986 80.2891 24.2043C82.2344 22.6731 82.2344 22.6731 84.2344 22.6731Z" fill="#285370"/>
<path d="M33.2344 172.673C33.8944 173.003 34.5544 173.333 35.2344 173.673C35.6173 177.597 35.304 179.872 33.1719 183.111C31.2347 186.156 31.235 186.682 31.4844 190.611C31.7319 191.621 31.9794 192.632 32.2344 193.673C28.3594 191.798 28.3594 191.798 27.2344 190.673C26.1461 183.522 29.6034 178.649 33.2344 172.673Z" fill="#3C9DD2"/>
<path d="M72.2344 40.6731C72.5644 41.3331 72.8944 41.9931 73.2344 42.6731C75.259 43.3252 75.259 43.3252 77.2344 43.6731C75.9407 47.554 74.3273 48.24 70.9219 50.4231C69.9564 51.0573 68.9909 51.6915 67.9961 52.345C65.2344 53.6731 65.2344 53.6731 62.8789 53.3762C62.3362 53.1442 61.7935 52.9122 61.2344 52.6731C61.9975 51.9512 62.7606 51.2293 63.5469 50.4856C65.9587 47.9616 67.4685 45.643 69.2344 42.6731C70.2244 42.0131 71.2144 41.3531 72.2344 40.6731Z" fill="#1E415C"/>
<path d="M247.234 130.673C249.797 132.861 249.797 132.861 252.234 135.673C252.154 139.119 251.679 140.229 249.234 142.673C246.609 142.298 246.609 142.298 244.234 141.673C244.153 140.216 244.095 138.757 244.047 137.298C244.012 136.486 243.977 135.674 243.941 134.837C244.038 134.123 244.135 133.409 244.234 132.673C245.224 132.013 246.214 131.353 247.234 130.673Z" fill="#357EAA"/>
<path d="M141.234 255.673C145.35 256.315 148.538 258.543 151.984 260.736C152.586 261.113 153.188 261.49 153.809 261.878C155.287 262.805 156.761 263.738 158.234 264.673C155.178 265.651 153.382 265.681 150.344 264.677C149.635 264.448 148.926 264.219 148.195 263.984C147.466 263.737 146.736 263.49 145.984 263.236C145.239 262.993 144.494 262.75 143.727 262.499C141.893 261.9 140.063 261.288 138.234 260.673C138.894 260.343 139.554 260.013 140.234 259.673C140.887 257.648 140.887 257.648 141.234 255.673Z" fill="#315068"/>
</svg>
